G04 #@! TF.GenerationSoftware,KiCad,Pcbnew,7.0.6-7.0.6~ubuntu23.04.1*
G04 #@! TF.CreationDate,2023-07-23T13:36:01+02:00*
G04 #@! TF.ProjectId,CoralWave,436f7261-6c57-4617-9665-2e6b69636164,rev?*
G04 #@! TF.SameCoordinates,Original*
G04 #@! TF.FileFunction,Soldermask,Top*
G04 #@! TF.FilePolarity,Negative*
%FSLAX46Y46*%
G04 Gerber Fmt 4.6, Leading zero omitted, Abs format (unit mm)*
G04 Created by KiCad (PCBNEW 7.0.6-7.0.6~ubuntu23.04.1) date 2023-07-23 13:36:01*
%MOMM*%
%LPD*%
G01*
G04 APERTURE LIST*
%ADD10R,1.100000X3.700000*%
%ADD11C,0.650000*%
%ADD12R,0.600000X1.030000*%
%ADD13R,0.600000X1.080000*%
%ADD14R,0.300000X1.150000*%
%ADD15O,1.050000X2.100000*%
%ADD16O,1.000000X2.000000*%
%ADD17R,0.947699X0.254800*%
%ADD18R,0.254800X0.947699*%
%ADD19R,0.650000X0.720000*%
%ADD20R,0.720000X0.650000*%
%ADD21R,0.900000X1.500000*%
%ADD22R,0.700000X0.700000*%
%ADD23R,5.080000X2.290000*%
%ADD24R,5.080000X2.415000*%
%ADD25R,0.600000X0.750000*%
%ADD26R,1.400000X1.200000*%
%ADD27R,0.600000X0.620000*%
%ADD28R,0.620000X0.600000*%
%ADD29R,0.900000X0.950000*%
%ADD30R,0.750000X0.600000*%
%ADD31R,0.750000X0.940000*%
%ADD32R,0.350000X0.650000*%
%ADD33R,1.219200X0.914400*%
%ADD34R,0.430000X0.320000*%
%ADD35R,0.320000X0.430000*%
%ADD36R,0.600000X0.700000*%
%ADD37R,1.200000X0.600000*%
G04 APERTURE END LIST*
D10*
X123790000Y-59520000D03*
X126790000Y-59520000D03*
D11*
X126160000Y-54380000D03*
X120380000Y-54380000D03*
D12*
X126470000Y-55515000D03*
D13*
X125670000Y-55490000D03*
D14*
X124520000Y-55455000D03*
X123520000Y-55455000D03*
X123020000Y-55455000D03*
X122020000Y-55455000D03*
D12*
X120070000Y-55515000D03*
D13*
X120870000Y-55490000D03*
D14*
X121520000Y-55455000D03*
X122520000Y-55455000D03*
X124020000Y-55455000D03*
X125020000Y-55455000D03*
D15*
X127590000Y-54880000D03*
D16*
X127590000Y-50700000D03*
X118950000Y-50700000D03*
D15*
X118950000Y-54880000D03*
D17*
X131936350Y-57419999D03*
X131936350Y-57920001D03*
X131936350Y-58420000D03*
X131936350Y-58919999D03*
X131936350Y-59420001D03*
D18*
X132832599Y-60316250D03*
X133332601Y-60316250D03*
X133832600Y-60316250D03*
X134332599Y-60316250D03*
X134832601Y-60316250D03*
D17*
X135728850Y-59420001D03*
X135728850Y-58919999D03*
X135728850Y-58420000D03*
X135728850Y-57920001D03*
X135728850Y-57419999D03*
D18*
X134832601Y-56523750D03*
X134332599Y-56523750D03*
X133832600Y-56523750D03*
X133332601Y-56523750D03*
X132832599Y-56523750D03*
D19*
X133027600Y-58420000D03*
D20*
X133832600Y-57615000D03*
X133832600Y-59225000D03*
D19*
X134637600Y-58420000D03*
D21*
X99630000Y-67800000D03*
X101130000Y-67800000D03*
X102630000Y-67800000D03*
X104130000Y-67800000D03*
X105630000Y-67800000D03*
X107130000Y-67800000D03*
X108630000Y-67800000D03*
X110130000Y-67800000D03*
X111630000Y-67800000D03*
X111630000Y-50300000D03*
X110130000Y-50300000D03*
X108630000Y-50300000D03*
X107130000Y-50300000D03*
X105630000Y-50300000D03*
X104130000Y-50300000D03*
X102630000Y-50300000D03*
X101130000Y-50300000D03*
X99630000Y-50300000D03*
D22*
X105830000Y-58090000D03*
X105830000Y-56990000D03*
X104730000Y-56990000D03*
X104730000Y-58090000D03*
X104730000Y-59190000D03*
X105830000Y-59190000D03*
X106930000Y-59190000D03*
X106930000Y-58090000D03*
X106930000Y-56990000D03*
D23*
X149100000Y-59050000D03*
D24*
X149100000Y-54667500D03*
X149100000Y-63432500D03*
D25*
X114570000Y-56000000D03*
X114570000Y-57100000D03*
D26*
X132600000Y-65460000D03*
X134800000Y-65460000D03*
X134800000Y-63860000D03*
X132600000Y-63860000D03*
D27*
X115690000Y-67600000D03*
X114770000Y-67600000D03*
D28*
X130340000Y-65460000D03*
X130340000Y-66380000D03*
D27*
X144390000Y-58340000D03*
X145310000Y-58340000D03*
D29*
X117400000Y-64830000D03*
X119000000Y-64830000D03*
D28*
X129010000Y-64140000D03*
X129010000Y-63220000D03*
X139530000Y-61380000D03*
X139530000Y-60460000D03*
X135730000Y-53430000D03*
X135730000Y-54350000D03*
D30*
X114530000Y-63000000D03*
X115630000Y-63000000D03*
D31*
X119150000Y-63340000D03*
X117750000Y-63340000D03*
D29*
X119000000Y-66440000D03*
X117400000Y-66440000D03*
D28*
X130500000Y-59420000D03*
X130500000Y-60340000D03*
D32*
X142285000Y-58340000D03*
X143135000Y-58340000D03*
D28*
X127910000Y-64140000D03*
X127910000Y-63220000D03*
D33*
X120860000Y-61638300D03*
X120860000Y-58361700D03*
D30*
X114530000Y-65400000D03*
X115630000Y-65400000D03*
D28*
X137090000Y-63860000D03*
X137090000Y-64780000D03*
D27*
X132730000Y-55220000D03*
X133650000Y-55220000D03*
D34*
X120870000Y-56860000D03*
X119770000Y-56860000D03*
D35*
X117330000Y-50930000D03*
X117330000Y-52030000D03*
D27*
X114770000Y-68800000D03*
X115690000Y-68800000D03*
D36*
X134350000Y-52990000D03*
X134350000Y-54090000D03*
D25*
X117280000Y-55060000D03*
X117280000Y-56160000D03*
D35*
X117340000Y-53970000D03*
X117340000Y-52870000D03*
D32*
X138265000Y-60460000D03*
X137415000Y-60460000D03*
D27*
X129270000Y-58440000D03*
X130190000Y-58440000D03*
D28*
X126810000Y-64140000D03*
X126810000Y-63220000D03*
D27*
X137420000Y-59400000D03*
X138340000Y-59400000D03*
X137380000Y-61530000D03*
X138300000Y-61530000D03*
D25*
X129040000Y-52550000D03*
X129040000Y-51450000D03*
D28*
X137490000Y-56360000D03*
X137490000Y-57280000D03*
X142280000Y-60320000D03*
X142280000Y-59400000D03*
D27*
X114520000Y-64200000D03*
X115440000Y-64200000D03*
D28*
X144390000Y-60220000D03*
X144390000Y-59300000D03*
D27*
X135220000Y-61670000D03*
X134300000Y-61670000D03*
D32*
X137485000Y-58340000D03*
X138335000Y-58340000D03*
X139885000Y-58340000D03*
X140735000Y-58340000D03*
D37*
X123200000Y-65460000D03*
X123200000Y-64510000D03*
X123200000Y-63560000D03*
X120700000Y-63560000D03*
X120700000Y-65460000D03*
D28*
X136830000Y-53430000D03*
X136830000Y-54350000D03*
M02*
