G04 #@! TF.GenerationSoftware,KiCad,Pcbnew,7.0.6-7.0.6~ubuntu23.04.1*
G04 #@! TF.CreationDate,2023-07-23T13:36:01+02:00*
G04 #@! TF.ProjectId,CoralWave,436f7261-6c57-4617-9665-2e6b69636164,rev?*
G04 #@! TF.SameCoordinates,Original*
G04 #@! TF.FileFunction,Copper,L2,Bot*
G04 #@! TF.FilePolarity,Positive*
%FSLAX46Y46*%
G04 Gerber Fmt 4.6, Leading zero omitted, Abs format (unit mm)*
G04 Created by KiCad (PCBNEW 7.0.6-7.0.6~ubuntu23.04.1) date 2023-07-23 13:36:01*
%MOMM*%
%LPD*%
G01*
G04 APERTURE LIST*
G04 #@! TA.AperFunction,ComponentPad*
%ADD10O,1.050000X2.100000*%
G04 #@! TD*
G04 #@! TA.AperFunction,ComponentPad*
%ADD11O,1.000000X2.000000*%
G04 #@! TD*
G04 #@! TA.AperFunction,SMDPad,CuDef*
%ADD12R,5.080000X2.415000*%
G04 #@! TD*
G04 #@! TA.AperFunction,ViaPad*
%ADD13C,0.600000*%
G04 #@! TD*
G04 #@! TA.AperFunction,Conductor*
%ADD14C,0.127000*%
G04 #@! TD*
G04 APERTURE END LIST*
D10*
X127590000Y-54880000D03*
D11*
X127590000Y-50700000D03*
X118950000Y-50700000D03*
D10*
X118950000Y-54880000D03*
D12*
X149100000Y-54667500D03*
X149100000Y-63432500D03*
D13*
X107480000Y-56440000D03*
X107480000Y-59740000D03*
X104180000Y-59740000D03*
X104170000Y-56440000D03*
X105280000Y-56440000D03*
X106380000Y-56440000D03*
X107470000Y-57540000D03*
X107470000Y-58640000D03*
X106380000Y-59740000D03*
X105280000Y-59740000D03*
X104170000Y-58640000D03*
X104170000Y-57540000D03*
X145410000Y-54670000D03*
X145390000Y-63430000D03*
X133030000Y-57610000D03*
X134640000Y-57620000D03*
X134640000Y-59230000D03*
X133030000Y-59230000D03*
X133830000Y-58430000D03*
X117290000Y-50210000D03*
X145390000Y-60220000D03*
X106380000Y-57540000D03*
X125810000Y-64150000D03*
X117750000Y-62270000D03*
X137910000Y-64780000D03*
X133530000Y-52990000D03*
X129280000Y-60330000D03*
X116620000Y-53970000D03*
X136830000Y-52620000D03*
X138300000Y-62360000D03*
X130020000Y-51420000D03*
X113960000Y-68800000D03*
X131920000Y-55220000D03*
X116240000Y-64200000D03*
X139530000Y-62260000D03*
X105290000Y-58640000D03*
X143290000Y-60320000D03*
X135730000Y-52620000D03*
X129270000Y-59450000D03*
X138330000Y-56360000D03*
X106380000Y-58640000D03*
X133437641Y-62087000D03*
X124560000Y-63940000D03*
X128990000Y-53730000D03*
X111630000Y-66290000D03*
X129520000Y-66380000D03*
X134882101Y-55310000D03*
X105280000Y-57540000D03*
X117400000Y-67430000D03*
X117280000Y-57010000D03*
X129273102Y-55693102D03*
X108430000Y-65963000D03*
X129198562Y-57224204D03*
X108993000Y-65316000D03*
X128260000Y-58109602D03*
X109570000Y-64753000D03*
X133490000Y-51780000D03*
X131063500Y-62650000D03*
X132190000Y-62650000D03*
X129850000Y-57690000D03*
X135437000Y-62650000D03*
X136730000Y-62650000D03*
X132045000Y-53225000D03*
X107830000Y-66526000D03*
X129280000Y-54780000D03*
X112630000Y-51600000D03*
X125568571Y-57255445D03*
X126492000Y-56660000D03*
X114570000Y-58089000D03*
D14*
X114806000Y-58325000D02*
X114570000Y-58089000D01*
X125367106Y-56660000D02*
X123702106Y-58325000D01*
X126492000Y-56660000D02*
X125367106Y-56660000D01*
X123702106Y-58325000D02*
X114806000Y-58325000D01*
X112630000Y-51600000D02*
X112630000Y-58178000D01*
X112630000Y-58178000D02*
X113104000Y-58652000D01*
X113104000Y-58652000D02*
X125025552Y-58652000D01*
X125025552Y-58652000D02*
X125568571Y-58108981D01*
X125568571Y-58108981D02*
X125568571Y-57255445D01*
X128728652Y-56897204D02*
X129273102Y-56352754D01*
X127705244Y-56897204D02*
X128728652Y-56897204D01*
X112043398Y-60293488D02*
X113030886Y-59306000D01*
X129273102Y-56352754D02*
X129273102Y-55693102D01*
X108430000Y-65963000D02*
X108430000Y-63920000D01*
X112043398Y-60306602D02*
X112043398Y-60293488D01*
X125296448Y-59306000D02*
X127705244Y-56897204D01*
X108430000Y-63920000D02*
X112043398Y-60306602D01*
X113030886Y-59306000D02*
X125296448Y-59306000D01*
X125431896Y-59633000D02*
X113166334Y-59633000D01*
X127840692Y-57224204D02*
X125431896Y-59633000D01*
X112370398Y-60428936D02*
X112370398Y-60442050D01*
X112370398Y-60442050D02*
X109000000Y-63812448D01*
X129198562Y-57224204D02*
X127840692Y-57224204D01*
X109000000Y-65309000D02*
X108993000Y-65316000D01*
X113166334Y-59633000D02*
X112370398Y-60428936D01*
X109000000Y-63812448D02*
X109000000Y-65309000D01*
X112697398Y-60577498D02*
X112697398Y-60564384D01*
X125567344Y-59960000D02*
X127417742Y-58109602D01*
X109570000Y-63704896D02*
X112697398Y-60577498D01*
X112697398Y-60564384D02*
X113301782Y-59960000D01*
X113301782Y-59960000D02*
X125567344Y-59960000D01*
X109570000Y-64753000D02*
X109570000Y-63704896D01*
X127417742Y-58109602D02*
X128260000Y-58109602D01*
X133490000Y-51780000D02*
X132045000Y-53225000D01*
X136730000Y-62650000D02*
X135437000Y-62650000D01*
X129850000Y-54250000D02*
X130875000Y-53225000D01*
X129850000Y-57690000D02*
X129850000Y-61436500D01*
X129850000Y-61436500D02*
X131063500Y-62650000D01*
X132190000Y-62650000D02*
X131063500Y-62650000D01*
X129850000Y-57690000D02*
X129850000Y-54250000D01*
X130875000Y-53225000D02*
X132045000Y-53225000D01*
X125161000Y-58979000D02*
X112895438Y-58979000D01*
X128709602Y-55350398D02*
X128709602Y-56260398D01*
X111716398Y-60158040D02*
X111716398Y-60171154D01*
X127569796Y-56570204D02*
X125161000Y-58979000D01*
X129280000Y-54780000D02*
X128709602Y-55350398D01*
X111716398Y-60171154D02*
X107830000Y-64057552D01*
X107830000Y-64057552D02*
X107830000Y-66526000D01*
X128709602Y-56260398D02*
X128399796Y-56570204D01*
X112895438Y-58979000D02*
X111716398Y-60158040D01*
X128399796Y-56570204D02*
X127569796Y-56570204D01*
G04 #@! TA.AperFunction,Conductor*
G36*
X151992539Y-48430185D02*
G01*
X152038294Y-48482989D01*
X152049500Y-48534500D01*
X152049500Y-52900493D01*
X152029815Y-52967532D01*
X151977011Y-53013287D01*
X151907853Y-53023231D01*
X151882167Y-53016675D01*
X151747380Y-52966403D01*
X151747372Y-52966401D01*
X151687844Y-52960000D01*
X149350000Y-52960000D01*
X149350000Y-56375000D01*
X151687828Y-56375000D01*
X151687844Y-56374999D01*
X151747372Y-56368598D01*
X151747379Y-56368596D01*
X151882167Y-56318324D01*
X151951858Y-56313340D01*
X152013181Y-56346825D01*
X152046666Y-56408148D01*
X152049500Y-56434506D01*
X152049500Y-61665493D01*
X152029815Y-61732532D01*
X151977011Y-61778287D01*
X151907853Y-61788231D01*
X151882167Y-61781675D01*
X151747380Y-61731403D01*
X151747372Y-61731401D01*
X151687844Y-61725000D01*
X149350000Y-61725000D01*
X149350000Y-65140000D01*
X151687828Y-65140000D01*
X151687844Y-65139999D01*
X151747372Y-65133598D01*
X151747379Y-65133596D01*
X151882167Y-65083324D01*
X151951858Y-65078340D01*
X152013181Y-65111825D01*
X152046666Y-65173148D01*
X152049500Y-65199506D01*
X152049500Y-69565500D01*
X152029815Y-69632539D01*
X151977011Y-69678294D01*
X151925500Y-69689500D01*
X98724500Y-69689500D01*
X98657461Y-69669815D01*
X98611706Y-69617011D01*
X98600500Y-69565500D01*
X98600500Y-66526003D01*
X107024435Y-66526003D01*
X107044630Y-66705249D01*
X107044631Y-66705254D01*
X107104211Y-66875523D01*
X107200183Y-67028262D01*
X107200184Y-67028262D01*
X107327738Y-67155816D01*
X107480478Y-67251789D01*
X107650744Y-67311368D01*
X107650745Y-67311368D01*
X107650750Y-67311369D01*
X107829996Y-67331565D01*
X107830000Y-67331565D01*
X107830004Y-67331565D01*
X108009249Y-67311369D01*
X108009252Y-67311368D01*
X108009255Y-67311368D01*
X108179522Y-67251789D01*
X108332262Y-67155816D01*
X108459816Y-67028262D01*
X108555789Y-66875522D01*
X108579307Y-66808309D01*
X108620026Y-66751535D01*
X108655390Y-66732224D01*
X108748877Y-66699511D01*
X108779520Y-66688790D01*
X108779522Y-66688789D01*
X108932262Y-66592816D01*
X109059816Y-66465262D01*
X109155789Y-66312522D01*
X109215368Y-66142255D01*
X109215368Y-66142254D01*
X109217668Y-66135682D01*
X109220499Y-66136672D01*
X109248010Y-66087358D01*
X109293939Y-66058788D01*
X109342522Y-66041789D01*
X109495262Y-65945816D01*
X109622816Y-65818262D01*
X109718789Y-65665522D01*
X109745516Y-65589138D01*
X109786238Y-65532363D01*
X109821602Y-65513052D01*
X109919522Y-65478789D01*
X110072262Y-65382816D01*
X110199816Y-65255262D01*
X110295789Y-65102522D01*
X110355368Y-64932255D01*
X110375565Y-64753000D01*
X110355368Y-64573745D01*
X110295789Y-64403478D01*
X110199816Y-64250738D01*
X110199815Y-64250736D01*
X110170317Y-64221238D01*
X110136833Y-64159914D01*
X110134000Y-64133558D01*
X110134000Y-63989874D01*
X110153685Y-63922835D01*
X110170314Y-63902198D01*
X110390012Y-63682500D01*
X146060000Y-63682500D01*
X146060000Y-64687844D01*
X146066401Y-64747372D01*
X146066403Y-64747379D01*
X146116645Y-64882086D01*
X146116649Y-64882093D01*
X146202809Y-64997187D01*
X146202812Y-64997190D01*
X146317906Y-65083350D01*
X146317913Y-65083354D01*
X146452620Y-65133596D01*
X146452627Y-65133598D01*
X146512155Y-65139999D01*
X146512172Y-65140000D01*
X148850000Y-65140000D01*
X148850000Y-63682500D01*
X146060000Y-63682500D01*
X110390012Y-63682500D01*
X113067201Y-61005310D01*
X113073286Y-60999974D01*
X113099648Y-60979748D01*
X113122347Y-60950166D01*
X113163130Y-60897015D01*
X113168458Y-60890939D01*
X113499081Y-60560316D01*
X113560403Y-60526834D01*
X113586761Y-60524000D01*
X125526310Y-60524000D01*
X125534407Y-60524530D01*
X125567344Y-60528867D01*
X125567345Y-60528867D01*
X125582786Y-60526834D01*
X125714578Y-60509483D01*
X125851777Y-60452653D01*
X125940012Y-60384949D01*
X125940012Y-60384948D01*
X125962950Y-60367348D01*
X125962950Y-60367347D01*
X125969594Y-60362250D01*
X125989820Y-60335888D01*
X125995163Y-60329796D01*
X127583961Y-58740999D01*
X127645282Y-58707516D01*
X127714974Y-58712500D01*
X127751552Y-58736008D01*
X127752295Y-58735077D01*
X127757737Y-58739417D01*
X127757738Y-58739418D01*
X127910478Y-58835391D01*
X128080744Y-58894969D01*
X128080745Y-58894970D01*
X128080750Y-58894971D01*
X128259996Y-58915167D01*
X128260000Y-58915167D01*
X128260004Y-58915167D01*
X128439249Y-58894971D01*
X128439252Y-58894970D01*
X128439255Y-58894970D01*
X128609522Y-58835391D01*
X128762262Y-58739418D01*
X128889816Y-58611864D01*
X128985789Y-58459124D01*
X129044958Y-58290026D01*
X129085679Y-58233253D01*
X129150631Y-58207505D01*
X129219193Y-58220961D01*
X129269596Y-58269348D01*
X129285999Y-58330983D01*
X129286000Y-61395463D01*
X129285469Y-61403564D01*
X129281133Y-61436498D01*
X129281133Y-61436500D01*
X129286000Y-61473467D01*
X129300517Y-61583733D01*
X129300517Y-61583734D01*
X129357347Y-61720934D01*
X129401356Y-61778287D01*
X129447750Y-61838750D01*
X129460173Y-61848282D01*
X129474107Y-61858974D01*
X129480203Y-61864319D01*
X130086628Y-62470745D01*
X130226243Y-62610360D01*
X130259728Y-62671683D01*
X130261782Y-62684157D01*
X130278130Y-62829250D01*
X130278131Y-62829254D01*
X130337711Y-62999523D01*
X130433683Y-63152262D01*
X130433684Y-63152262D01*
X130561238Y-63279816D01*
X130566223Y-63282948D01*
X130713974Y-63375787D01*
X130713978Y-63375789D01*
X130884244Y-63435367D01*
X130884245Y-63435368D01*
X130884250Y-63435369D01*
X131063496Y-63455565D01*
X131063500Y-63455565D01*
X131063504Y-63455565D01*
X131242749Y-63435369D01*
X131242752Y-63435368D01*
X131242755Y-63435368D01*
X131413022Y-63375789D01*
X131413024Y-63375787D01*
X131413026Y-63375787D01*
X131560778Y-63282948D01*
X131628014Y-63263947D01*
X131692722Y-63282948D01*
X131840473Y-63375787D01*
X131840477Y-63375788D01*
X131840478Y-63375789D01*
X132010744Y-63435368D01*
X132010745Y-63435368D01*
X132010750Y-63435369D01*
X132189996Y-63455565D01*
X132190000Y-63455565D01*
X132190004Y-63455565D01*
X132369249Y-63435369D01*
X132369252Y-63435368D01*
X132369255Y-63435368D01*
X132539522Y-63375789D01*
X132692262Y-63279816D01*
X132819816Y-63152262D01*
X132915789Y-62999522D01*
X132975368Y-62829255D01*
X132975369Y-62829249D01*
X132995565Y-62650003D01*
X134631435Y-62650003D01*
X134651630Y-62829249D01*
X134651631Y-62829254D01*
X134711211Y-62999523D01*
X134807184Y-63152261D01*
X134807184Y-63152262D01*
X134934738Y-63279816D01*
X134939723Y-63282948D01*
X135087474Y-63375787D01*
X135087478Y-63375789D01*
X135257745Y-63435367D01*
X135257745Y-63435368D01*
X135257750Y-63435369D01*
X135436996Y-63455565D01*
X135437000Y-63455565D01*
X135437004Y-63455565D01*
X135616249Y-63435369D01*
X135616252Y-63435368D01*
X135616255Y-63435368D01*
X135786522Y-63375789D01*
X135939262Y-63279816D01*
X135968758Y-63250319D01*
X136030082Y-63216834D01*
X136056440Y-63214000D01*
X136110560Y-63214000D01*
X136177599Y-63233685D01*
X136198241Y-63250319D01*
X136227738Y-63279816D01*
X136232723Y-63282948D01*
X136380474Y-63375787D01*
X136380478Y-63375789D01*
X136550744Y-63435367D01*
X136550745Y-63435368D01*
X136550750Y-63435369D01*
X136729996Y-63455565D01*
X136730000Y-63455565D01*
X136730004Y-63455565D01*
X136909249Y-63435369D01*
X136909252Y-63435368D01*
X136909255Y-63435368D01*
X137079522Y-63375789D01*
X137232262Y-63279816D01*
X137329578Y-63182500D01*
X146060000Y-63182500D01*
X148850000Y-63182500D01*
X148850000Y-61725000D01*
X146512155Y-61725000D01*
X146452627Y-61731401D01*
X146452620Y-61731403D01*
X146317913Y-61781645D01*
X146317906Y-61781649D01*
X146202812Y-61867809D01*
X146202809Y-61867812D01*
X146116649Y-61982906D01*
X146116645Y-61982913D01*
X146066403Y-62117620D01*
X146066401Y-62117627D01*
X146060000Y-62177155D01*
X146060000Y-63182500D01*
X137329578Y-63182500D01*
X137359816Y-63152262D01*
X137455789Y-62999522D01*
X137515368Y-62829255D01*
X137515369Y-62829249D01*
X137535565Y-62650003D01*
X137535565Y-62649996D01*
X137515369Y-62470750D01*
X137515368Y-62470745D01*
X137455788Y-62300476D01*
X137359815Y-62147737D01*
X137232262Y-62020184D01*
X137079523Y-61924211D01*
X136909254Y-61864631D01*
X136909249Y-61864630D01*
X136730004Y-61844435D01*
X136729996Y-61844435D01*
X136550750Y-61864630D01*
X136550745Y-61864631D01*
X136380476Y-61924211D01*
X136227737Y-62020184D01*
X136198241Y-62049681D01*
X136136918Y-62083166D01*
X136110560Y-62086000D01*
X136056440Y-62086000D01*
X135989401Y-62066315D01*
X135968759Y-62049681D01*
X135939262Y-62020184D01*
X135786523Y-61924211D01*
X135616254Y-61864631D01*
X135616249Y-61864630D01*
X135437004Y-61844435D01*
X135436996Y-61844435D01*
X135257750Y-61864630D01*
X135257745Y-61864631D01*
X135087476Y-61924211D01*
X134934737Y-62020184D01*
X134807184Y-62147737D01*
X134711211Y-62300476D01*
X134651631Y-62470745D01*
X134651630Y-62470750D01*
X134631435Y-62649996D01*
X134631435Y-62650003D01*
X132995565Y-62650003D01*
X132995565Y-62649996D01*
X132975369Y-62470750D01*
X132975368Y-62470745D01*
X132915788Y-62300476D01*
X132819815Y-62147737D01*
X132692262Y-62020184D01*
X132539523Y-61924211D01*
X132369254Y-61864631D01*
X132369249Y-61864630D01*
X132190004Y-61844435D01*
X132189996Y-61844435D01*
X132010750Y-61864630D01*
X132010745Y-61864631D01*
X131840476Y-61924211D01*
X131692722Y-62017052D01*
X131625485Y-62036052D01*
X131560778Y-62017052D01*
X131413023Y-61924211D01*
X131242754Y-61864631D01*
X131242750Y-61864630D01*
X131097657Y-61848282D01*
X131033243Y-61821215D01*
X131023860Y-61812743D01*
X130450319Y-61239201D01*
X130416834Y-61177878D01*
X130414000Y-61151520D01*
X130414000Y-58309439D01*
X130433685Y-58242400D01*
X130450311Y-58221766D01*
X130479816Y-58192262D01*
X130575789Y-58039522D01*
X130635368Y-57869255D01*
X130640711Y-57821837D01*
X130655565Y-57690003D01*
X130655565Y-57689996D01*
X130635369Y-57510750D01*
X130635368Y-57510745D01*
X130617326Y-57459184D01*
X130575789Y-57340478D01*
X130552636Y-57303631D01*
X130479815Y-57187737D01*
X130450318Y-57158240D01*
X130416833Y-57096917D01*
X130413999Y-57070559D01*
X130413999Y-55823419D01*
X130413999Y-54917500D01*
X146060000Y-54917500D01*
X146060000Y-55922844D01*
X146066401Y-55982372D01*
X146066403Y-55982379D01*
X146116645Y-56117086D01*
X146116649Y-56117093D01*
X146202809Y-56232187D01*
X146202812Y-56232190D01*
X146317906Y-56318350D01*
X146317913Y-56318354D01*
X146452620Y-56368596D01*
X146452627Y-56368598D01*
X146512155Y-56374999D01*
X146512172Y-56375000D01*
X148850000Y-56375000D01*
X148850000Y-54917500D01*
X146060000Y-54917500D01*
X130413999Y-54917500D01*
X130413999Y-54534975D01*
X130433684Y-54467940D01*
X130450313Y-54447303D01*
X130480116Y-54417500D01*
X146060000Y-54417500D01*
X148850000Y-54417500D01*
X148850000Y-52960000D01*
X146512155Y-52960000D01*
X146452627Y-52966401D01*
X146452620Y-52966403D01*
X146317913Y-53016645D01*
X146317906Y-53016649D01*
X146202812Y-53102809D01*
X146202809Y-53102812D01*
X146116649Y-53217906D01*
X146116645Y-53217913D01*
X146066403Y-53352620D01*
X146066401Y-53352627D01*
X146060000Y-53412155D01*
X146060000Y-54417500D01*
X130480116Y-54417500D01*
X131072298Y-53825319D01*
X131133621Y-53791834D01*
X131159979Y-53789000D01*
X131425560Y-53789000D01*
X131492599Y-53808685D01*
X131513241Y-53825319D01*
X131542738Y-53854816D01*
X131578572Y-53877332D01*
X131672996Y-53936663D01*
X131695478Y-53950789D01*
X131820771Y-53994631D01*
X131865745Y-54010368D01*
X131865750Y-54010369D01*
X132044996Y-54030565D01*
X132045000Y-54030565D01*
X132045004Y-54030565D01*
X132224249Y-54010369D01*
X132224252Y-54010368D01*
X132224255Y-54010368D01*
X132394522Y-53950789D01*
X132547262Y-53854816D01*
X132674816Y-53727262D01*
X132770789Y-53574522D01*
X132830368Y-53404255D01*
X132846716Y-53259156D01*
X132873782Y-53194744D01*
X132882245Y-53185370D01*
X133450362Y-52617253D01*
X133511683Y-52583770D01*
X133524151Y-52581717D01*
X133589071Y-52574402D01*
X133669250Y-52565369D01*
X133669253Y-52565368D01*
X133669255Y-52565368D01*
X133839522Y-52505789D01*
X133992262Y-52409816D01*
X134119816Y-52282262D01*
X134215789Y-52129522D01*
X134275368Y-51959255D01*
X134278830Y-51928530D01*
X134295565Y-51780003D01*
X134295565Y-51779996D01*
X134275369Y-51600750D01*
X134275368Y-51600745D01*
X134215788Y-51430476D01*
X134119815Y-51277737D01*
X133992262Y-51150184D01*
X133839523Y-51054211D01*
X133669254Y-50994631D01*
X133669249Y-50994630D01*
X133490004Y-50974435D01*
X133489996Y-50974435D01*
X133310750Y-50994630D01*
X133310745Y-50994631D01*
X133140476Y-51054211D01*
X132987737Y-51150184D01*
X132860184Y-51277737D01*
X132764211Y-51430476D01*
X132704631Y-51600745D01*
X132704630Y-51600749D01*
X132688283Y-51745840D01*
X132661216Y-51810254D01*
X132652744Y-51819637D01*
X132084637Y-52387744D01*
X132023314Y-52421229D01*
X132010840Y-52423283D01*
X131865749Y-52439630D01*
X131865745Y-52439631D01*
X131695476Y-52499211D01*
X131542737Y-52595184D01*
X131513241Y-52624681D01*
X131451918Y-52658166D01*
X131425560Y-52661000D01*
X130916034Y-52661000D01*
X130907936Y-52660469D01*
X130875000Y-52656133D01*
X130874999Y-52656133D01*
X130727766Y-52675517D01*
X130727765Y-52675517D01*
X130590567Y-52732346D01*
X130514819Y-52790470D01*
X130472748Y-52822751D01*
X130452523Y-52849108D01*
X130447171Y-52855211D01*
X129480211Y-53822171D01*
X129474108Y-53827523D01*
X129447748Y-53847750D01*
X129413844Y-53891934D01*
X129413842Y-53891938D01*
X129387574Y-53926172D01*
X129331147Y-53967375D01*
X129286963Y-53972551D01*
X129286963Y-53974435D01*
X129279996Y-53974435D01*
X129100750Y-53994630D01*
X129100745Y-53994631D01*
X128930476Y-54054211D01*
X128777735Y-54150185D01*
X128776717Y-54150998D01*
X128775934Y-54151317D01*
X128771842Y-54153889D01*
X128771391Y-54153171D01*
X128712030Y-54177403D01*
X128643335Y-54164644D01*
X128592443Y-54116771D01*
X128580748Y-54090042D01*
X128541557Y-53960846D01*
X128446384Y-53782790D01*
X128446379Y-53782784D01*
X128318292Y-53626707D01*
X128162215Y-53498620D01*
X128162209Y-53498615D01*
X127984150Y-53403441D01*
X127840000Y-53359712D01*
X127840000Y-54163889D01*
X127815543Y-54124390D01*
X127726038Y-54056799D01*
X127618160Y-54026105D01*
X127506479Y-54036454D01*
X127406078Y-54086448D01*
X127340000Y-54158930D01*
X127340000Y-53359712D01*
X127195849Y-53403441D01*
X127017790Y-53498615D01*
X127017784Y-53498620D01*
X126861707Y-53626707D01*
X126733620Y-53782784D01*
X126733618Y-53782787D01*
X126686174Y-53871547D01*
X126637211Y-53921391D01*
X126569073Y-53936851D01*
X126503393Y-53913019D01*
X126501351Y-53911485D01*
X126485678Y-53899458D01*
X126452251Y-53873808D01*
X126452247Y-53873806D01*
X126311280Y-53815416D01*
X126311278Y-53815415D01*
X126197981Y-53800500D01*
X126197980Y-53800500D01*
X126122020Y-53800500D01*
X126122019Y-53800500D01*
X126008721Y-53815415D01*
X126008719Y-53815416D01*
X125867752Y-53873806D01*
X125746696Y-53966696D01*
X125653806Y-54087752D01*
X125595416Y-54228719D01*
X125595415Y-54228721D01*
X125575500Y-54379998D01*
X125575500Y-54380001D01*
X125595415Y-54531278D01*
X125595416Y-54531280D01*
X125653806Y-54672247D01*
X125653807Y-54672249D01*
X125653808Y-54672250D01*
X125746696Y-54793304D01*
X125867750Y-54886192D01*
X126008720Y-54944584D01*
X126035792Y-54948148D01*
X126122019Y-54959500D01*
X126122020Y-54959500D01*
X126197981Y-54959500D01*
X126235746Y-54954528D01*
X126311280Y-54944584D01*
X126393549Y-54910506D01*
X126463016Y-54903038D01*
X126525495Y-54934313D01*
X126561148Y-54994401D01*
X126565000Y-55025068D01*
X126565000Y-55455357D01*
X126579829Y-55605933D01*
X126606678Y-55694440D01*
X126607301Y-55764306D01*
X126570053Y-55823419D01*
X126506759Y-55853010D01*
X126498913Y-55853606D01*
X126498919Y-55853655D01*
X126312750Y-55874630D01*
X126312745Y-55874631D01*
X126142476Y-55934211D01*
X125989737Y-56030184D01*
X125960241Y-56059681D01*
X125898918Y-56093166D01*
X125872560Y-56096000D01*
X125408147Y-56096000D01*
X125400048Y-56095469D01*
X125367106Y-56091132D01*
X125367105Y-56091132D01*
X125334164Y-56095469D01*
X125236979Y-56108264D01*
X125225574Y-56109766D01*
X125219871Y-56110517D01*
X125179686Y-56127161D01*
X125082675Y-56167344D01*
X125082672Y-56167346D01*
X124994438Y-56235051D01*
X124964856Y-56257748D01*
X124944628Y-56284110D01*
X124939277Y-56290211D01*
X123504808Y-57724681D01*
X123443485Y-57758166D01*
X123417127Y-57761000D01*
X115377845Y-57761000D01*
X115310806Y-57741315D01*
X115272851Y-57702972D01*
X115199815Y-57586737D01*
X115072262Y-57459184D01*
X114919523Y-57363211D01*
X114749254Y-57303631D01*
X114749249Y-57303630D01*
X114570004Y-57283435D01*
X114569996Y-57283435D01*
X114390750Y-57303630D01*
X114390745Y-57303631D01*
X114220476Y-57363211D01*
X114067737Y-57459184D01*
X113940184Y-57586737D01*
X113844211Y-57739476D01*
X113784631Y-57909745D01*
X113784630Y-57909749D01*
X113776954Y-57977884D01*
X113749887Y-58042298D01*
X113692293Y-58081853D01*
X113653734Y-58088000D01*
X113388979Y-58088000D01*
X113321940Y-58068315D01*
X113301297Y-58051681D01*
X113230318Y-57980701D01*
X113196834Y-57919377D01*
X113194000Y-57893020D01*
X113194000Y-55455357D01*
X117925000Y-55455357D01*
X117939829Y-55605932D01*
X117998443Y-55799154D01*
X118093615Y-55977209D01*
X118093620Y-55977215D01*
X118221707Y-56133292D01*
X118377784Y-56261379D01*
X118377790Y-56261384D01*
X118555846Y-56356557D01*
X118700000Y-56400285D01*
X118700000Y-55596110D01*
X118724457Y-55635610D01*
X118813962Y-55703201D01*
X118921840Y-55733895D01*
X119033521Y-55723546D01*
X119133922Y-55673552D01*
X119200000Y-55601069D01*
X119200000Y-56400285D01*
X119344153Y-56356557D01*
X119522209Y-56261384D01*
X119522215Y-56261379D01*
X119678292Y-56133292D01*
X119806379Y-55977215D01*
X119806384Y-55977209D01*
X119901556Y-55799154D01*
X119960170Y-55605932D01*
X119974999Y-55455357D01*
X119975000Y-55025068D01*
X119994685Y-54958029D01*
X120047489Y-54912274D01*
X120116647Y-54902330D01*
X120146447Y-54910505D01*
X120228720Y-54944584D01*
X120255792Y-54948148D01*
X120342019Y-54959500D01*
X120342020Y-54959500D01*
X120417981Y-54959500D01*
X120455746Y-54954528D01*
X120531280Y-54944584D01*
X120672250Y-54886192D01*
X120793304Y-54793304D01*
X120886192Y-54672250D01*
X120944584Y-54531280D01*
X120964500Y-54380000D01*
X120944584Y-54228720D01*
X120898213Y-54116771D01*
X120886193Y-54087752D01*
X120886192Y-54087751D01*
X120886192Y-54087750D01*
X120793304Y-53966696D01*
X120672250Y-53873808D01*
X120672249Y-53873807D01*
X120672247Y-53873806D01*
X120531280Y-53815416D01*
X120531278Y-53815415D01*
X120417981Y-53800500D01*
X120417980Y-53800500D01*
X120342020Y-53800500D01*
X120342019Y-53800500D01*
X120228721Y-53815415D01*
X120228719Y-53815416D01*
X120087752Y-53873806D01*
X120087749Y-53873808D01*
X120038669Y-53911469D01*
X119973500Y-53936663D01*
X119905055Y-53922625D01*
X119855066Y-53873811D01*
X119853825Y-53871546D01*
X119806384Y-53782790D01*
X119806379Y-53782784D01*
X119678292Y-53626707D01*
X119522215Y-53498620D01*
X119522209Y-53498615D01*
X119344150Y-53403441D01*
X119200000Y-53359712D01*
X119200000Y-54163889D01*
X119175543Y-54124390D01*
X119086038Y-54056799D01*
X118978160Y-54026105D01*
X118866479Y-54036454D01*
X118766078Y-54086448D01*
X118700000Y-54158930D01*
X118700000Y-53359712D01*
X118555849Y-53403441D01*
X118377790Y-53498615D01*
X118377784Y-53498620D01*
X118221707Y-53626707D01*
X118093620Y-53782784D01*
X118093615Y-53782790D01*
X117998443Y-53960845D01*
X117939829Y-54154067D01*
X117925000Y-54304642D01*
X117925000Y-54630000D01*
X118650000Y-54630000D01*
X118650000Y-55130000D01*
X117925000Y-55130000D01*
X117925000Y-55455357D01*
X113194000Y-55455357D01*
X113194000Y-55057511D01*
X113193999Y-52219436D01*
X113213684Y-52152401D01*
X113230313Y-52131763D01*
X113259816Y-52102262D01*
X113355789Y-51949522D01*
X113415368Y-51779255D01*
X113425672Y-51687804D01*
X113435565Y-51600003D01*
X113435565Y-51599996D01*
X113415369Y-51420750D01*
X113415368Y-51420745D01*
X113388357Y-51343552D01*
X113355871Y-51250713D01*
X117950000Y-51250713D01*
X117965418Y-51402338D01*
X118026299Y-51596381D01*
X118026304Y-51596391D01*
X118125005Y-51774215D01*
X118125005Y-51774216D01*
X118257478Y-51928530D01*
X118257479Y-51928531D01*
X118418304Y-52053018D01*
X118600907Y-52142589D01*
X118700000Y-52168244D01*
X118700000Y-51266110D01*
X118724457Y-51305610D01*
X118813962Y-51373201D01*
X118921840Y-51403895D01*
X119033521Y-51393546D01*
X119133922Y-51343552D01*
X119199999Y-51271070D01*
X119199999Y-52173365D01*
X119201943Y-52173068D01*
X119201952Y-52173066D01*
X119392657Y-52102437D01*
X119392664Y-52102434D01*
X119565267Y-51994850D01*
X119712668Y-51854735D01*
X119712669Y-51854733D01*
X119828856Y-51687804D01*
X119909059Y-51500907D01*
X119950000Y-51301690D01*
X119950000Y-51250713D01*
X126590000Y-51250713D01*
X126605418Y-51402338D01*
X126666299Y-51596381D01*
X126666304Y-51596391D01*
X126765005Y-51774215D01*
X126765005Y-51774216D01*
X126897478Y-51928530D01*
X126897479Y-51928531D01*
X127058304Y-52053018D01*
X127240907Y-52142589D01*
X127340000Y-52168244D01*
X127340000Y-51266110D01*
X127364457Y-51305610D01*
X127453962Y-51373201D01*
X127561840Y-51403895D01*
X127673521Y-51393546D01*
X127773922Y-51343552D01*
X127839999Y-51271069D01*
X127840000Y-52173366D01*
X127841944Y-52173069D01*
X127841945Y-52173069D01*
X128032660Y-52102436D01*
X128032664Y-52102434D01*
X128205267Y-51994850D01*
X128352668Y-51854735D01*
X128352669Y-51854733D01*
X128468856Y-51687804D01*
X128549059Y-51500907D01*
X128590000Y-51301690D01*
X128590000Y-50950000D01*
X127890000Y-50950000D01*
X127890000Y-50450000D01*
X128590000Y-50450000D01*
X128590000Y-50149286D01*
X128574581Y-49997661D01*
X128513700Y-49803618D01*
X128513695Y-49803608D01*
X128414994Y-49625784D01*
X128414994Y-49625783D01*
X128282521Y-49471469D01*
X128282520Y-49471468D01*
X128121695Y-49346981D01*
X127939093Y-49257411D01*
X127840000Y-49231753D01*
X127840000Y-50133889D01*
X127815543Y-50094390D01*
X127726038Y-50026799D01*
X127618160Y-49996105D01*
X127506479Y-50006454D01*
X127406078Y-50056448D01*
X127340000Y-50128930D01*
X127340000Y-49226633D01*
X127338053Y-49226931D01*
X127338047Y-49226933D01*
X127147342Y-49297562D01*
X127147335Y-49297565D01*
X126974732Y-49405149D01*
X126827331Y-49545264D01*
X126827330Y-49545266D01*
X126711143Y-49712195D01*
X126630940Y-49899092D01*
X126590000Y-50098309D01*
X126590000Y-50450000D01*
X127290000Y-50450000D01*
X127290000Y-50950000D01*
X126590000Y-50950000D01*
X126590000Y-51250713D01*
X119950000Y-51250713D01*
X119950000Y-50950000D01*
X119250000Y-50950000D01*
X119250000Y-50450000D01*
X119950000Y-50450000D01*
X119950000Y-50149286D01*
X119934581Y-49997661D01*
X119873700Y-49803618D01*
X119873695Y-49803608D01*
X119774994Y-49625784D01*
X119774994Y-49625783D01*
X119642521Y-49471469D01*
X119642520Y-49471468D01*
X119481695Y-49346981D01*
X119299097Y-49257412D01*
X119199999Y-49231754D01*
X119199999Y-50133887D01*
X119175543Y-50094390D01*
X119086038Y-50026799D01*
X118978160Y-49996105D01*
X118866479Y-50006454D01*
X118766078Y-50056448D01*
X118699999Y-50128930D01*
X118700000Y-49226633D01*
X118698053Y-49226931D01*
X118698047Y-49226933D01*
X118507342Y-49297562D01*
X118507335Y-49297565D01*
X118334732Y-49405149D01*
X118187331Y-49545264D01*
X118187330Y-49545266D01*
X118071143Y-49712195D01*
X117990940Y-49899092D01*
X117950000Y-50098309D01*
X117950000Y-50450000D01*
X118650000Y-50450000D01*
X118650000Y-50950000D01*
X117950000Y-50950000D01*
X117950000Y-51250713D01*
X113355871Y-51250713D01*
X113355789Y-51250478D01*
X113259816Y-51097738D01*
X113132262Y-50970184D01*
X112979523Y-50874211D01*
X112809254Y-50814631D01*
X112809249Y-50814630D01*
X112630004Y-50794435D01*
X112629996Y-50794435D01*
X112450750Y-50814630D01*
X112450745Y-50814631D01*
X112280476Y-50874211D01*
X112127737Y-50970184D01*
X112000184Y-51097737D01*
X111904211Y-51250476D01*
X111844631Y-51420745D01*
X111844630Y-51420750D01*
X111824435Y-51599996D01*
X111824435Y-51600003D01*
X111844630Y-51779249D01*
X111844631Y-51779254D01*
X111904211Y-51949523D01*
X112000184Y-52102262D01*
X112029681Y-52131759D01*
X112063166Y-52193082D01*
X112066000Y-52219440D01*
X112066000Y-58136963D01*
X112065468Y-58145064D01*
X112061133Y-58178000D01*
X112071675Y-58258077D01*
X112080517Y-58325233D01*
X112080517Y-58325234D01*
X112137347Y-58462434D01*
X112174789Y-58511231D01*
X112174790Y-58511231D01*
X112227750Y-58580250D01*
X112246717Y-58594803D01*
X112254106Y-58600474D01*
X112260201Y-58605818D01*
X112277920Y-58623537D01*
X112311405Y-58684860D01*
X112306421Y-58754552D01*
X112277920Y-58798899D01*
X111346609Y-59730211D01*
X111340506Y-59735563D01*
X111314147Y-59755790D01*
X111276515Y-59804833D01*
X111276508Y-59804840D01*
X111250674Y-59838508D01*
X111245322Y-59844612D01*
X107460211Y-63629723D01*
X107454108Y-63635075D01*
X107427748Y-63655302D01*
X107393859Y-63699467D01*
X107393843Y-63699490D01*
X107337347Y-63773118D01*
X107280517Y-63910317D01*
X107280517Y-63910318D01*
X107261133Y-64057552D01*
X107261133Y-64057556D01*
X107265468Y-64090487D01*
X107265999Y-64098587D01*
X107266000Y-65906559D01*
X107246315Y-65973598D01*
X107229683Y-65994239D01*
X107200183Y-66023739D01*
X107104211Y-66176476D01*
X107044631Y-66346745D01*
X107044630Y-66346750D01*
X107024435Y-66525996D01*
X107024435Y-66526003D01*
X98600500Y-66526003D01*
X98600500Y-48534500D01*
X98620185Y-48467461D01*
X98672989Y-48421706D01*
X98724500Y-48410500D01*
X151925500Y-48410500D01*
X151992539Y-48430185D01*
G37*
G04 #@! TD.AperFunction*
G04 #@! TA.AperFunction,Conductor*
G36*
X151992539Y-48430185D02*
G01*
X152038294Y-48482989D01*
X152049500Y-48534500D01*
X152049500Y-52900493D01*
X152029815Y-52967532D01*
X151977011Y-53013287D01*
X151907853Y-53023231D01*
X151882167Y-53016675D01*
X151747380Y-52966403D01*
X151747372Y-52966401D01*
X151687844Y-52960000D01*
X149350000Y-52960000D01*
X149350000Y-56375000D01*
X151687828Y-56375000D01*
X151687844Y-56374999D01*
X151747372Y-56368598D01*
X151747379Y-56368596D01*
X151882167Y-56318324D01*
X151951858Y-56313340D01*
X152013181Y-56346825D01*
X152046666Y-56408148D01*
X152049500Y-56434506D01*
X152049500Y-61665493D01*
X152029815Y-61732532D01*
X151977011Y-61778287D01*
X151907853Y-61788231D01*
X151882167Y-61781675D01*
X151747380Y-61731403D01*
X151747372Y-61731401D01*
X151687844Y-61725000D01*
X149350000Y-61725000D01*
X149350000Y-65140000D01*
X151687828Y-65140000D01*
X151687844Y-65139999D01*
X151747372Y-65133598D01*
X151747379Y-65133596D01*
X151882167Y-65083324D01*
X151951858Y-65078340D01*
X152013181Y-65111825D01*
X152046666Y-65173148D01*
X152049500Y-65199506D01*
X152049500Y-69565500D01*
X152029815Y-69632539D01*
X151977011Y-69678294D01*
X151925500Y-69689500D01*
X98724500Y-69689500D01*
X98657461Y-69669815D01*
X98611706Y-69617011D01*
X98600500Y-69565500D01*
X98600500Y-66526003D01*
X107024435Y-66526003D01*
X107044630Y-66705249D01*
X107044631Y-66705254D01*
X107104211Y-66875523D01*
X107200183Y-67028262D01*
X107200184Y-67028262D01*
X107327738Y-67155816D01*
X107480478Y-67251789D01*
X107650744Y-67311368D01*
X107650745Y-67311368D01*
X107650750Y-67311369D01*
X107829996Y-67331565D01*
X107830000Y-67331565D01*
X107830004Y-67331565D01*
X108009249Y-67311369D01*
X108009252Y-67311368D01*
X108009255Y-67311368D01*
X108179522Y-67251789D01*
X108332262Y-67155816D01*
X108459816Y-67028262D01*
X108555789Y-66875522D01*
X108579307Y-66808309D01*
X108620026Y-66751535D01*
X108655390Y-66732224D01*
X108748877Y-66699511D01*
X108779520Y-66688790D01*
X108779522Y-66688789D01*
X108932262Y-66592816D01*
X109059816Y-66465262D01*
X109155789Y-66312522D01*
X109215368Y-66142255D01*
X109215368Y-66142254D01*
X109217668Y-66135682D01*
X109220499Y-66136672D01*
X109248010Y-66087358D01*
X109293939Y-66058788D01*
X109342522Y-66041789D01*
X109495262Y-65945816D01*
X109622816Y-65818262D01*
X109718789Y-65665522D01*
X109745516Y-65589138D01*
X109786238Y-65532363D01*
X109821602Y-65513052D01*
X109919522Y-65478789D01*
X110072262Y-65382816D01*
X110199816Y-65255262D01*
X110295789Y-65102522D01*
X110355368Y-64932255D01*
X110375565Y-64753000D01*
X110355368Y-64573745D01*
X110295789Y-64403478D01*
X110199816Y-64250738D01*
X110199815Y-64250736D01*
X110170317Y-64221238D01*
X110136833Y-64159914D01*
X110134000Y-64133558D01*
X110134000Y-63989874D01*
X110153685Y-63922835D01*
X110170314Y-63902198D01*
X110390012Y-63682500D01*
X146060000Y-63682500D01*
X146060000Y-64687844D01*
X146066401Y-64747372D01*
X146066403Y-64747379D01*
X146116645Y-64882086D01*
X146116649Y-64882093D01*
X146202809Y-64997187D01*
X146202812Y-64997190D01*
X146317906Y-65083350D01*
X146317913Y-65083354D01*
X146452620Y-65133596D01*
X146452627Y-65133598D01*
X146512155Y-65139999D01*
X146512172Y-65140000D01*
X148850000Y-65140000D01*
X148850000Y-63682500D01*
X146060000Y-63682500D01*
X110390012Y-63682500D01*
X113067201Y-61005310D01*
X113073286Y-60999974D01*
X113099648Y-60979748D01*
X113122347Y-60950166D01*
X113163130Y-60897015D01*
X113168458Y-60890939D01*
X113499081Y-60560316D01*
X113560403Y-60526834D01*
X113586761Y-60524000D01*
X125526310Y-60524000D01*
X125534407Y-60524530D01*
X125567344Y-60528867D01*
X125567345Y-60528867D01*
X125582786Y-60526834D01*
X125714578Y-60509483D01*
X125851777Y-60452653D01*
X125940012Y-60384949D01*
X125940012Y-60384948D01*
X125962950Y-60367348D01*
X125962950Y-60367347D01*
X125969594Y-60362250D01*
X125989820Y-60335888D01*
X125995163Y-60329796D01*
X127583961Y-58740999D01*
X127645282Y-58707516D01*
X127714974Y-58712500D01*
X127751552Y-58736008D01*
X127752295Y-58735077D01*
X127757737Y-58739417D01*
X127757738Y-58739418D01*
X127910478Y-58835391D01*
X128080744Y-58894969D01*
X128080745Y-58894970D01*
X128080750Y-58894971D01*
X128259996Y-58915167D01*
X128260000Y-58915167D01*
X128260004Y-58915167D01*
X128439249Y-58894971D01*
X128439252Y-58894970D01*
X128439255Y-58894970D01*
X128609522Y-58835391D01*
X128762262Y-58739418D01*
X128889816Y-58611864D01*
X128985789Y-58459124D01*
X129044958Y-58290026D01*
X129085679Y-58233253D01*
X129150631Y-58207505D01*
X129219193Y-58220961D01*
X129269596Y-58269348D01*
X129285999Y-58330983D01*
X129286000Y-61395463D01*
X129285469Y-61403564D01*
X129281133Y-61436498D01*
X129281133Y-61436500D01*
X129286000Y-61473467D01*
X129300517Y-61583733D01*
X129300517Y-61583734D01*
X129357347Y-61720934D01*
X129401356Y-61778287D01*
X129447750Y-61838750D01*
X129460173Y-61848282D01*
X129474107Y-61858974D01*
X129480203Y-61864319D01*
X130086628Y-62470745D01*
X130226243Y-62610360D01*
X130259728Y-62671683D01*
X130261782Y-62684157D01*
X130278130Y-62829250D01*
X130278131Y-62829254D01*
X130337711Y-62999523D01*
X130433683Y-63152262D01*
X130433684Y-63152262D01*
X130561238Y-63279816D01*
X130566223Y-63282948D01*
X130713974Y-63375787D01*
X130713978Y-63375789D01*
X130884244Y-63435367D01*
X130884245Y-63435368D01*
X130884250Y-63435369D01*
X131063496Y-63455565D01*
X131063500Y-63455565D01*
X131063504Y-63455565D01*
X131242749Y-63435369D01*
X131242752Y-63435368D01*
X131242755Y-63435368D01*
X131413022Y-63375789D01*
X131413024Y-63375787D01*
X131413026Y-63375787D01*
X131560778Y-63282948D01*
X131628014Y-63263947D01*
X131692722Y-63282948D01*
X131840473Y-63375787D01*
X131840477Y-63375788D01*
X131840478Y-63375789D01*
X132010744Y-63435368D01*
X132010745Y-63435368D01*
X132010750Y-63435369D01*
X132189996Y-63455565D01*
X132190000Y-63455565D01*
X132190004Y-63455565D01*
X132369249Y-63435369D01*
X132369252Y-63435368D01*
X132369255Y-63435368D01*
X132539522Y-63375789D01*
X132692262Y-63279816D01*
X132819816Y-63152262D01*
X132915789Y-62999522D01*
X132975368Y-62829255D01*
X132975369Y-62829249D01*
X132995565Y-62650003D01*
X134631435Y-62650003D01*
X134651630Y-62829249D01*
X134651631Y-62829254D01*
X134711211Y-62999523D01*
X134807184Y-63152261D01*
X134807184Y-63152262D01*
X134934738Y-63279816D01*
X134939723Y-63282948D01*
X135087474Y-63375787D01*
X135087478Y-63375789D01*
X135257745Y-63435367D01*
X135257745Y-63435368D01*
X135257750Y-63435369D01*
X135436996Y-63455565D01*
X135437000Y-63455565D01*
X135437004Y-63455565D01*
X135616249Y-63435369D01*
X135616252Y-63435368D01*
X135616255Y-63435368D01*
X135786522Y-63375789D01*
X135939262Y-63279816D01*
X135968758Y-63250319D01*
X136030082Y-63216834D01*
X136056440Y-63214000D01*
X136110560Y-63214000D01*
X136177599Y-63233685D01*
X136198241Y-63250319D01*
X136227738Y-63279816D01*
X136232723Y-63282948D01*
X136380474Y-63375787D01*
X136380478Y-63375789D01*
X136550744Y-63435367D01*
X136550745Y-63435368D01*
X136550750Y-63435369D01*
X136729996Y-63455565D01*
X136730000Y-63455565D01*
X136730004Y-63455565D01*
X136909249Y-63435369D01*
X136909252Y-63435368D01*
X136909255Y-63435368D01*
X137079522Y-63375789D01*
X137232262Y-63279816D01*
X137329578Y-63182500D01*
X146060000Y-63182500D01*
X148850000Y-63182500D01*
X148850000Y-61725000D01*
X146512155Y-61725000D01*
X146452627Y-61731401D01*
X146452620Y-61731403D01*
X146317913Y-61781645D01*
X146317906Y-61781649D01*
X146202812Y-61867809D01*
X146202809Y-61867812D01*
X146116649Y-61982906D01*
X146116645Y-61982913D01*
X146066403Y-62117620D01*
X146066401Y-62117627D01*
X146060000Y-62177155D01*
X146060000Y-63182500D01*
X137329578Y-63182500D01*
X137359816Y-63152262D01*
X137455789Y-62999522D01*
X137515368Y-62829255D01*
X137515369Y-62829249D01*
X137535565Y-62650003D01*
X137535565Y-62649996D01*
X137515369Y-62470750D01*
X137515368Y-62470745D01*
X137455788Y-62300476D01*
X137359815Y-62147737D01*
X137232262Y-62020184D01*
X137079523Y-61924211D01*
X136909254Y-61864631D01*
X136909249Y-61864630D01*
X136730004Y-61844435D01*
X136729996Y-61844435D01*
X136550750Y-61864630D01*
X136550745Y-61864631D01*
X136380476Y-61924211D01*
X136227737Y-62020184D01*
X136198241Y-62049681D01*
X136136918Y-62083166D01*
X136110560Y-62086000D01*
X136056440Y-62086000D01*
X135989401Y-62066315D01*
X135968759Y-62049681D01*
X135939262Y-62020184D01*
X135786523Y-61924211D01*
X135616254Y-61864631D01*
X135616249Y-61864630D01*
X135437004Y-61844435D01*
X135436996Y-61844435D01*
X135257750Y-61864630D01*
X135257745Y-61864631D01*
X135087476Y-61924211D01*
X134934737Y-62020184D01*
X134807184Y-62147737D01*
X134711211Y-62300476D01*
X134651631Y-62470745D01*
X134651630Y-62470750D01*
X134631435Y-62649996D01*
X134631435Y-62650003D01*
X132995565Y-62650003D01*
X132995565Y-62649996D01*
X132975369Y-62470750D01*
X132975368Y-62470745D01*
X132915788Y-62300476D01*
X132819815Y-62147737D01*
X132692262Y-62020184D01*
X132539523Y-61924211D01*
X132369254Y-61864631D01*
X132369249Y-61864630D01*
X132190004Y-61844435D01*
X132189996Y-61844435D01*
X132010750Y-61864630D01*
X132010745Y-61864631D01*
X131840476Y-61924211D01*
X131692722Y-62017052D01*
X131625485Y-62036052D01*
X131560778Y-62017052D01*
X131413023Y-61924211D01*
X131242754Y-61864631D01*
X131242750Y-61864630D01*
X131097657Y-61848282D01*
X131033243Y-61821215D01*
X131023860Y-61812743D01*
X130450319Y-61239201D01*
X130416834Y-61177878D01*
X130414000Y-61151520D01*
X130414000Y-58309439D01*
X130433685Y-58242400D01*
X130450311Y-58221766D01*
X130479816Y-58192262D01*
X130575789Y-58039522D01*
X130635368Y-57869255D01*
X130640711Y-57821837D01*
X130655565Y-57690003D01*
X130655565Y-57689996D01*
X130635369Y-57510750D01*
X130635368Y-57510745D01*
X130617326Y-57459184D01*
X130575789Y-57340478D01*
X130552636Y-57303631D01*
X130479815Y-57187737D01*
X130450318Y-57158240D01*
X130416833Y-57096917D01*
X130413999Y-57070559D01*
X130413999Y-55823419D01*
X130413999Y-54917500D01*
X146060000Y-54917500D01*
X146060000Y-55922844D01*
X146066401Y-55982372D01*
X146066403Y-55982379D01*
X146116645Y-56117086D01*
X146116649Y-56117093D01*
X146202809Y-56232187D01*
X146202812Y-56232190D01*
X146317906Y-56318350D01*
X146317913Y-56318354D01*
X146452620Y-56368596D01*
X146452627Y-56368598D01*
X146512155Y-56374999D01*
X146512172Y-56375000D01*
X148850000Y-56375000D01*
X148850000Y-54917500D01*
X146060000Y-54917500D01*
X130413999Y-54917500D01*
X130413999Y-54534975D01*
X130433684Y-54467940D01*
X130450313Y-54447303D01*
X130480116Y-54417500D01*
X146060000Y-54417500D01*
X148850000Y-54417500D01*
X148850000Y-52960000D01*
X146512155Y-52960000D01*
X146452627Y-52966401D01*
X146452620Y-52966403D01*
X146317913Y-53016645D01*
X146317906Y-53016649D01*
X146202812Y-53102809D01*
X146202809Y-53102812D01*
X146116649Y-53217906D01*
X146116645Y-53217913D01*
X146066403Y-53352620D01*
X146066401Y-53352627D01*
X146060000Y-53412155D01*
X146060000Y-54417500D01*
X130480116Y-54417500D01*
X131072298Y-53825319D01*
X131133621Y-53791834D01*
X131159979Y-53789000D01*
X131425560Y-53789000D01*
X131492599Y-53808685D01*
X131513241Y-53825319D01*
X131542738Y-53854816D01*
X131578572Y-53877332D01*
X131672996Y-53936663D01*
X131695478Y-53950789D01*
X131820771Y-53994631D01*
X131865745Y-54010368D01*
X131865750Y-54010369D01*
X132044996Y-54030565D01*
X132045000Y-54030565D01*
X132045004Y-54030565D01*
X132224249Y-54010369D01*
X132224252Y-54010368D01*
X132224255Y-54010368D01*
X132394522Y-53950789D01*
X132547262Y-53854816D01*
X132674816Y-53727262D01*
X132770789Y-53574522D01*
X132830368Y-53404255D01*
X132846716Y-53259156D01*
X132873782Y-53194744D01*
X132882245Y-53185370D01*
X133450362Y-52617253D01*
X133511683Y-52583770D01*
X133524151Y-52581717D01*
X133589071Y-52574402D01*
X133669250Y-52565369D01*
X133669253Y-52565368D01*
X133669255Y-52565368D01*
X133839522Y-52505789D01*
X133992262Y-52409816D01*
X134119816Y-52282262D01*
X134215789Y-52129522D01*
X134275368Y-51959255D01*
X134278830Y-51928530D01*
X134295565Y-51780003D01*
X134295565Y-51779996D01*
X134275369Y-51600750D01*
X134275368Y-51600745D01*
X134215788Y-51430476D01*
X134119815Y-51277737D01*
X133992262Y-51150184D01*
X133839523Y-51054211D01*
X133669254Y-50994631D01*
X133669249Y-50994630D01*
X133490004Y-50974435D01*
X133489996Y-50974435D01*
X133310750Y-50994630D01*
X133310745Y-50994631D01*
X133140476Y-51054211D01*
X132987737Y-51150184D01*
X132860184Y-51277737D01*
X132764211Y-51430476D01*
X132704631Y-51600745D01*
X132704630Y-51600749D01*
X132688283Y-51745840D01*
X132661216Y-51810254D01*
X132652744Y-51819637D01*
X132084637Y-52387744D01*
X132023314Y-52421229D01*
X132010840Y-52423283D01*
X131865749Y-52439630D01*
X131865745Y-52439631D01*
X131695476Y-52499211D01*
X131542737Y-52595184D01*
X131513241Y-52624681D01*
X131451918Y-52658166D01*
X131425560Y-52661000D01*
X130916034Y-52661000D01*
X130907936Y-52660469D01*
X130875000Y-52656133D01*
X130874999Y-52656133D01*
X130727766Y-52675517D01*
X130727765Y-52675517D01*
X130590567Y-52732346D01*
X130514819Y-52790470D01*
X130472748Y-52822751D01*
X130452523Y-52849108D01*
X130447171Y-52855211D01*
X129480211Y-53822171D01*
X129474108Y-53827523D01*
X129447748Y-53847750D01*
X129413844Y-53891934D01*
X129413842Y-53891938D01*
X129387574Y-53926172D01*
X129331147Y-53967375D01*
X129286963Y-53972551D01*
X129286963Y-53974435D01*
X129279996Y-53974435D01*
X129100750Y-53994630D01*
X129100745Y-53994631D01*
X128930476Y-54054211D01*
X128777735Y-54150185D01*
X128776717Y-54150998D01*
X128775934Y-54151317D01*
X128771842Y-54153889D01*
X128771391Y-54153171D01*
X128712030Y-54177403D01*
X128643335Y-54164644D01*
X128592443Y-54116771D01*
X128580748Y-54090042D01*
X128541557Y-53960846D01*
X128446384Y-53782790D01*
X128446379Y-53782784D01*
X128318292Y-53626707D01*
X128162215Y-53498620D01*
X128162209Y-53498615D01*
X127984150Y-53403441D01*
X127840000Y-53359712D01*
X127840000Y-54163889D01*
X127815543Y-54124390D01*
X127726038Y-54056799D01*
X127618160Y-54026105D01*
X127506479Y-54036454D01*
X127406078Y-54086448D01*
X127340000Y-54158930D01*
X127340000Y-53359712D01*
X127195849Y-53403441D01*
X127017790Y-53498615D01*
X127017784Y-53498620D01*
X126861707Y-53626707D01*
X126733620Y-53782784D01*
X126733618Y-53782787D01*
X126686174Y-53871547D01*
X126637211Y-53921391D01*
X126569073Y-53936851D01*
X126503393Y-53913019D01*
X126501351Y-53911485D01*
X126485678Y-53899458D01*
X126452251Y-53873808D01*
X126452247Y-53873806D01*
X126311280Y-53815416D01*
X126311278Y-53815415D01*
X126197981Y-53800500D01*
X126197980Y-53800500D01*
X126122020Y-53800500D01*
X126122019Y-53800500D01*
X126008721Y-53815415D01*
X126008719Y-53815416D01*
X125867752Y-53873806D01*
X125746696Y-53966696D01*
X125653806Y-54087752D01*
X125595416Y-54228719D01*
X125595415Y-54228721D01*
X125575500Y-54379998D01*
X125575500Y-54380001D01*
X125595415Y-54531278D01*
X125595416Y-54531280D01*
X125653806Y-54672247D01*
X125653807Y-54672249D01*
X125653808Y-54672250D01*
X125746696Y-54793304D01*
X125867750Y-54886192D01*
X126008720Y-54944584D01*
X126035792Y-54948148D01*
X126122019Y-54959500D01*
X126122020Y-54959500D01*
X126197981Y-54959500D01*
X126235746Y-54954528D01*
X126311280Y-54944584D01*
X126393549Y-54910506D01*
X126463016Y-54903038D01*
X126525495Y-54934313D01*
X126561148Y-54994401D01*
X126565000Y-55025068D01*
X126565000Y-55455357D01*
X126579829Y-55605933D01*
X126606678Y-55694440D01*
X126607301Y-55764306D01*
X126570053Y-55823419D01*
X126506759Y-55853010D01*
X126498913Y-55853606D01*
X126498919Y-55853655D01*
X126312750Y-55874630D01*
X126312745Y-55874631D01*
X126142476Y-55934211D01*
X125989737Y-56030184D01*
X125960241Y-56059681D01*
X125898918Y-56093166D01*
X125872560Y-56096000D01*
X125408147Y-56096000D01*
X125400048Y-56095469D01*
X125367106Y-56091132D01*
X125367105Y-56091132D01*
X125334164Y-56095469D01*
X125236979Y-56108264D01*
X125225574Y-56109766D01*
X125219871Y-56110517D01*
X125179686Y-56127161D01*
X125082675Y-56167344D01*
X125082672Y-56167346D01*
X124994438Y-56235051D01*
X124964856Y-56257748D01*
X124944628Y-56284110D01*
X124939277Y-56290211D01*
X123504808Y-57724681D01*
X123443485Y-57758166D01*
X123417127Y-57761000D01*
X115377845Y-57761000D01*
X115310806Y-57741315D01*
X115272851Y-57702972D01*
X115199815Y-57586737D01*
X115072262Y-57459184D01*
X114919523Y-57363211D01*
X114749254Y-57303631D01*
X114749249Y-57303630D01*
X114570004Y-57283435D01*
X114569996Y-57283435D01*
X114390750Y-57303630D01*
X114390745Y-57303631D01*
X114220476Y-57363211D01*
X114067737Y-57459184D01*
X113940184Y-57586737D01*
X113844211Y-57739476D01*
X113784631Y-57909745D01*
X113784630Y-57909749D01*
X113776954Y-57977884D01*
X113749887Y-58042298D01*
X113692293Y-58081853D01*
X113653734Y-58088000D01*
X113388979Y-58088000D01*
X113321940Y-58068315D01*
X113301297Y-58051681D01*
X113230318Y-57980701D01*
X113196834Y-57919377D01*
X113194000Y-57893020D01*
X113194000Y-55455357D01*
X117925000Y-55455357D01*
X117939829Y-55605932D01*
X117998443Y-55799154D01*
X118093615Y-55977209D01*
X118093620Y-55977215D01*
X118221707Y-56133292D01*
X118377784Y-56261379D01*
X118377790Y-56261384D01*
X118555846Y-56356557D01*
X118700000Y-56400285D01*
X118700000Y-55596110D01*
X118724457Y-55635610D01*
X118813962Y-55703201D01*
X118921840Y-55733895D01*
X119033521Y-55723546D01*
X119133922Y-55673552D01*
X119200000Y-55601069D01*
X119200000Y-56400285D01*
X119344153Y-56356557D01*
X119522209Y-56261384D01*
X119522215Y-56261379D01*
X119678292Y-56133292D01*
X119806379Y-55977215D01*
X119806384Y-55977209D01*
X119901556Y-55799154D01*
X119960170Y-55605932D01*
X119974999Y-55455357D01*
X119975000Y-55025068D01*
X119994685Y-54958029D01*
X120047489Y-54912274D01*
X120116647Y-54902330D01*
X120146447Y-54910505D01*
X120228720Y-54944584D01*
X120255792Y-54948148D01*
X120342019Y-54959500D01*
X120342020Y-54959500D01*
X120417981Y-54959500D01*
X120455746Y-54954528D01*
X120531280Y-54944584D01*
X120672250Y-54886192D01*
X120793304Y-54793304D01*
X120886192Y-54672250D01*
X120944584Y-54531280D01*
X120964500Y-54380000D01*
X120944584Y-54228720D01*
X120898213Y-54116771D01*
X120886193Y-54087752D01*
X120886192Y-54087751D01*
X120886192Y-54087750D01*
X120793304Y-53966696D01*
X120672250Y-53873808D01*
X120672249Y-53873807D01*
X120672247Y-53873806D01*
X120531280Y-53815416D01*
X120531278Y-53815415D01*
X120417981Y-53800500D01*
X120417980Y-53800500D01*
X120342020Y-53800500D01*
X120342019Y-53800500D01*
X120228721Y-53815415D01*
X120228719Y-53815416D01*
X120087752Y-53873806D01*
X120087749Y-53873808D01*
X120038669Y-53911469D01*
X119973500Y-53936663D01*
X119905055Y-53922625D01*
X119855066Y-53873811D01*
X119853825Y-53871546D01*
X119806384Y-53782790D01*
X119806379Y-53782784D01*
X119678292Y-53626707D01*
X119522215Y-53498620D01*
X119522209Y-53498615D01*
X119344150Y-53403441D01*
X119200000Y-53359712D01*
X119200000Y-54163889D01*
X119175543Y-54124390D01*
X119086038Y-54056799D01*
X118978160Y-54026105D01*
X118866479Y-54036454D01*
X118766078Y-54086448D01*
X118700000Y-54158930D01*
X118700000Y-53359712D01*
X118555849Y-53403441D01*
X118377790Y-53498615D01*
X118377784Y-53498620D01*
X118221707Y-53626707D01*
X118093620Y-53782784D01*
X118093615Y-53782790D01*
X117998443Y-53960845D01*
X117939829Y-54154067D01*
X117925000Y-54304642D01*
X117925000Y-54630000D01*
X118650000Y-54630000D01*
X118650000Y-55130000D01*
X117925000Y-55130000D01*
X117925000Y-55455357D01*
X113194000Y-55455357D01*
X113194000Y-55057511D01*
X113193999Y-52219436D01*
X113213684Y-52152401D01*
X113230313Y-52131763D01*
X113259816Y-52102262D01*
X113355789Y-51949522D01*
X113415368Y-51779255D01*
X113425672Y-51687804D01*
X113435565Y-51600003D01*
X113435565Y-51599996D01*
X113415369Y-51420750D01*
X113415368Y-51420745D01*
X113388357Y-51343552D01*
X113355871Y-51250713D01*
X117950000Y-51250713D01*
X117965418Y-51402338D01*
X118026299Y-51596381D01*
X118026304Y-51596391D01*
X118125005Y-51774215D01*
X118125005Y-51774216D01*
X118257478Y-51928530D01*
X118257479Y-51928531D01*
X118418304Y-52053018D01*
X118600907Y-52142589D01*
X118700000Y-52168244D01*
X118700000Y-51266110D01*
X118724457Y-51305610D01*
X118813962Y-51373201D01*
X118921840Y-51403895D01*
X119033521Y-51393546D01*
X119133922Y-51343552D01*
X119199999Y-51271070D01*
X119199999Y-52173365D01*
X119201943Y-52173068D01*
X119201952Y-52173066D01*
X119392657Y-52102437D01*
X119392664Y-52102434D01*
X119565267Y-51994850D01*
X119712668Y-51854735D01*
X119712669Y-51854733D01*
X119828856Y-51687804D01*
X119909059Y-51500907D01*
X119950000Y-51301690D01*
X119950000Y-51250713D01*
X126590000Y-51250713D01*
X126605418Y-51402338D01*
X126666299Y-51596381D01*
X126666304Y-51596391D01*
X126765005Y-51774215D01*
X126765005Y-51774216D01*
X126897478Y-51928530D01*
X126897479Y-51928531D01*
X127058304Y-52053018D01*
X127240907Y-52142589D01*
X127340000Y-52168244D01*
X127340000Y-51266110D01*
X127364457Y-51305610D01*
X127453962Y-51373201D01*
X127561840Y-51403895D01*
X127673521Y-51393546D01*
X127773922Y-51343552D01*
X127839999Y-51271069D01*
X127840000Y-52173366D01*
X127841944Y-52173069D01*
X127841945Y-52173069D01*
X128032660Y-52102436D01*
X128032664Y-52102434D01*
X128205267Y-51994850D01*
X128352668Y-51854735D01*
X128352669Y-51854733D01*
X128468856Y-51687804D01*
X128549059Y-51500907D01*
X128590000Y-51301690D01*
X128590000Y-50950000D01*
X127890000Y-50950000D01*
X127890000Y-50450000D01*
X128590000Y-50450000D01*
X128590000Y-50149286D01*
X128574581Y-49997661D01*
X128513700Y-49803618D01*
X128513695Y-49803608D01*
X128414994Y-49625784D01*
X128414994Y-49625783D01*
X128282521Y-49471469D01*
X128282520Y-49471468D01*
X128121695Y-49346981D01*
X127939093Y-49257411D01*
X127840000Y-49231753D01*
X127840000Y-50133889D01*
X127815543Y-50094390D01*
X127726038Y-50026799D01*
X127618160Y-49996105D01*
X127506479Y-50006454D01*
X127406078Y-50056448D01*
X127340000Y-50128930D01*
X127340000Y-49226633D01*
X127338053Y-49226931D01*
X127338047Y-49226933D01*
X127147342Y-49297562D01*
X127147335Y-49297565D01*
X126974732Y-49405149D01*
X126827331Y-49545264D01*
X126827330Y-49545266D01*
X126711143Y-49712195D01*
X126630940Y-49899092D01*
X126590000Y-50098309D01*
X126590000Y-50450000D01*
X127290000Y-50450000D01*
X127290000Y-50950000D01*
X126590000Y-50950000D01*
X126590000Y-51250713D01*
X119950000Y-51250713D01*
X119950000Y-50950000D01*
X119250000Y-50950000D01*
X119250000Y-50450000D01*
X119950000Y-50450000D01*
X119950000Y-50149286D01*
X119934581Y-49997661D01*
X119873700Y-49803618D01*
X119873695Y-49803608D01*
X119774994Y-49625784D01*
X119774994Y-49625783D01*
X119642521Y-49471469D01*
X119642520Y-49471468D01*
X119481695Y-49346981D01*
X119299097Y-49257412D01*
X119199999Y-49231754D01*
X119199999Y-50133887D01*
X119175543Y-50094390D01*
X119086038Y-50026799D01*
X118978160Y-49996105D01*
X118866479Y-50006454D01*
X118766078Y-50056448D01*
X118699999Y-50128930D01*
X118700000Y-49226633D01*
X118698053Y-49226931D01*
X118698047Y-49226933D01*
X118507342Y-49297562D01*
X118507335Y-49297565D01*
X118334732Y-49405149D01*
X118187331Y-49545264D01*
X118187330Y-49545266D01*
X118071143Y-49712195D01*
X117990940Y-49899092D01*
X117950000Y-50098309D01*
X117950000Y-50450000D01*
X118650000Y-50450000D01*
X118650000Y-50950000D01*
X117950000Y-50950000D01*
X117950000Y-51250713D01*
X113355871Y-51250713D01*
X113355789Y-51250478D01*
X113259816Y-51097738D01*
X113132262Y-50970184D01*
X112979523Y-50874211D01*
X112809254Y-50814631D01*
X112809249Y-50814630D01*
X112630004Y-50794435D01*
X112629996Y-50794435D01*
X112450750Y-50814630D01*
X112450745Y-50814631D01*
X112280476Y-50874211D01*
X112127737Y-50970184D01*
X112000184Y-51097737D01*
X111904211Y-51250476D01*
X111844631Y-51420745D01*
X111844630Y-51420750D01*
X111824435Y-51599996D01*
X111824435Y-51600003D01*
X111844630Y-51779249D01*
X111844631Y-51779254D01*
X111904211Y-51949523D01*
X112000184Y-52102262D01*
X112029681Y-52131759D01*
X112063166Y-52193082D01*
X112066000Y-52219440D01*
X112066000Y-58136963D01*
X112065468Y-58145064D01*
X112061133Y-58178000D01*
X112071675Y-58258077D01*
X112080517Y-58325233D01*
X112080517Y-58325234D01*
X112137347Y-58462434D01*
X112174789Y-58511231D01*
X112174790Y-58511231D01*
X112227750Y-58580250D01*
X112246717Y-58594803D01*
X112254106Y-58600474D01*
X112260201Y-58605818D01*
X112277920Y-58623537D01*
X112311405Y-58684860D01*
X112306421Y-58754552D01*
X112277920Y-58798899D01*
X111346609Y-59730211D01*
X111340506Y-59735563D01*
X111314147Y-59755790D01*
X111276515Y-59804833D01*
X111276508Y-59804840D01*
X111250674Y-59838508D01*
X111245322Y-59844612D01*
X107460211Y-63629723D01*
X107454108Y-63635075D01*
X107427748Y-63655302D01*
X107393859Y-63699467D01*
X107393843Y-63699490D01*
X107337347Y-63773118D01*
X107280517Y-63910317D01*
X107280517Y-63910318D01*
X107261133Y-64057552D01*
X107261133Y-64057556D01*
X107265468Y-64090487D01*
X107265999Y-64098587D01*
X107266000Y-65906559D01*
X107246315Y-65973598D01*
X107229683Y-65994239D01*
X107200183Y-66023739D01*
X107104211Y-66176476D01*
X107044631Y-66346745D01*
X107044630Y-66346750D01*
X107024435Y-66525996D01*
X107024435Y-66526003D01*
X98600500Y-66526003D01*
X98600500Y-48534500D01*
X98620185Y-48467461D01*
X98672989Y-48421706D01*
X98724500Y-48410500D01*
X151925500Y-48410500D01*
X151992539Y-48430185D01*
G37*
G04 #@! TD.AperFunction*
M02*
