%TF.GenerationSoftware,KiCad,Pcbnew,7.0.6-7.0.6~ubuntu23.04.1*%
%TF.CreationDate,2023-07-23T13:37:16+02:00*%
%TF.ProjectId,CoralWave,436f7261-6c57-4617-9665-2e6b69636164,rev?*%
%TF.SameCoordinates,Original*%
%TF.FileFunction,Drillmap*%
%TF.FilePolarity,Positive*%
%FSLAX45Y45*%
G04 Gerber Fmt 4.5, Leading zero omitted, Abs format (unit mm)*
G04 Created by KiCad (PCBNEW 7.0.6-7.0.6~ubuntu23.04.1) date 2023-07-23 13:37:16*
%MOMM*%
%LPD*%
G01*
G04 APERTURE LIST*
%ADD10C,0.200000*%
%ADD11C,0.030000*%
%ADD12C,0.060000*%
G04 APERTURE END LIST*
D10*
X9830000Y-4811000D02*
X15235000Y-4811000D01*
X15235000Y-6999000D01*
X9830000Y-6999000D01*
X9830000Y-4811000D01*
D11*
X10402000Y-5629000D02*
X10432000Y-5659000D01*
X10432000Y-5629000D02*
X10402000Y-5659000D01*
X10402000Y-5739000D02*
X10432000Y-5769000D01*
X10432000Y-5739000D02*
X10402000Y-5769000D01*
X10402000Y-5849000D02*
X10432000Y-5879000D01*
X10432000Y-5849000D02*
X10402000Y-5879000D01*
X10403000Y-5959000D02*
X10433000Y-5989000D01*
X10433000Y-5959000D02*
X10403000Y-5989000D01*
X10513000Y-5629000D02*
X10543000Y-5659000D01*
X10543000Y-5629000D02*
X10513000Y-5659000D01*
X10513000Y-5739000D02*
X10543000Y-5769000D01*
X10543000Y-5739000D02*
X10513000Y-5769000D01*
X10513000Y-5959000D02*
X10543000Y-5989000D01*
X10543000Y-5959000D02*
X10513000Y-5989000D01*
X10514000Y-5849000D02*
X10544000Y-5879000D01*
X10544000Y-5849000D02*
X10514000Y-5879000D01*
X10623000Y-5629000D02*
X10653000Y-5659000D01*
X10653000Y-5629000D02*
X10623000Y-5659000D01*
X10623000Y-5739000D02*
X10653000Y-5769000D01*
X10653000Y-5739000D02*
X10623000Y-5769000D01*
X10623000Y-5849000D02*
X10653000Y-5879000D01*
X10653000Y-5849000D02*
X10623000Y-5879000D01*
X10623000Y-5959000D02*
X10653000Y-5989000D01*
X10653000Y-5959000D02*
X10623000Y-5989000D01*
X10732000Y-5739000D02*
X10762000Y-5769000D01*
X10762000Y-5739000D02*
X10732000Y-5769000D01*
X10732000Y-5849000D02*
X10762000Y-5879000D01*
X10762000Y-5849000D02*
X10732000Y-5879000D01*
X10733000Y-5629000D02*
X10763000Y-5659000D01*
X10763000Y-5629000D02*
X10733000Y-5659000D01*
X10733000Y-5959000D02*
X10763000Y-5989000D01*
X10763000Y-5959000D02*
X10733000Y-5989000D01*
X10768000Y-6637600D02*
X10798000Y-6667600D01*
X10798000Y-6637600D02*
X10768000Y-6667600D01*
X10828000Y-6581300D02*
X10858000Y-6611300D01*
X10858000Y-6581300D02*
X10828000Y-6611300D01*
X10884300Y-6516600D02*
X10914300Y-6546600D01*
X10914300Y-6516600D02*
X10884300Y-6546600D01*
X10942000Y-6460300D02*
X10972000Y-6490300D01*
X10972000Y-6460300D02*
X10942000Y-6490300D01*
X11148000Y-6614000D02*
X11178000Y-6644000D01*
X11178000Y-6614000D02*
X11148000Y-6644000D01*
X11248000Y-5145000D02*
X11278000Y-5175000D01*
X11278000Y-5145000D02*
X11248000Y-5175000D01*
X11381000Y-6865000D02*
X11411000Y-6895000D01*
X11411000Y-6865000D02*
X11381000Y-6895000D01*
X11442000Y-5793900D02*
X11472000Y-5823900D01*
X11472000Y-5793900D02*
X11442000Y-5823900D01*
X11609000Y-6405000D02*
X11639000Y-6435000D01*
X11639000Y-6405000D02*
X11609000Y-6435000D01*
X11647000Y-5382000D02*
X11677000Y-5412000D01*
X11677000Y-5382000D02*
X11647000Y-5412000D01*
X11713000Y-5686000D02*
X11743000Y-5716000D01*
X11743000Y-5686000D02*
X11713000Y-5716000D01*
X11714000Y-5006000D02*
X11744000Y-5036000D01*
X11744000Y-5006000D02*
X11714000Y-5036000D01*
X11725000Y-6728000D02*
X11755000Y-6758000D01*
X11755000Y-6728000D02*
X11725000Y-6758000D01*
X11760000Y-6212000D02*
X11790000Y-6242000D01*
X11790000Y-6212000D02*
X11760000Y-6242000D01*
X12441000Y-6379000D02*
X12471000Y-6409000D01*
X12471000Y-6379000D02*
X12441000Y-6409000D01*
X12541857Y-5710544D02*
X12571857Y-5740544D01*
X12571857Y-5710544D02*
X12541857Y-5740544D01*
X12566000Y-6400000D02*
X12596000Y-6430000D01*
X12596000Y-6400000D02*
X12566000Y-6430000D01*
X12634200Y-5651000D02*
X12664200Y-5681000D01*
X12664200Y-5651000D02*
X12634200Y-5681000D01*
X12811000Y-5795960D02*
X12841000Y-5825960D01*
X12841000Y-5795960D02*
X12811000Y-5825960D01*
X12884000Y-5358000D02*
X12914000Y-5388000D01*
X12914000Y-5358000D02*
X12884000Y-5388000D01*
X12904856Y-5707420D02*
X12934856Y-5737420D01*
X12934856Y-5707420D02*
X12904856Y-5737420D01*
X12912000Y-5930000D02*
X12942000Y-5960000D01*
X12942000Y-5930000D02*
X12912000Y-5960000D01*
X12912310Y-5554310D02*
X12942310Y-5584310D01*
X12942310Y-5554310D02*
X12912310Y-5584310D01*
X12913000Y-5463000D02*
X12943000Y-5493000D01*
X12943000Y-5463000D02*
X12913000Y-5493000D01*
X12913000Y-6018000D02*
X12943000Y-6048000D01*
X12943000Y-6018000D02*
X12913000Y-6048000D01*
X12937000Y-6623000D02*
X12967000Y-6653000D01*
X12967000Y-6623000D02*
X12937000Y-6653000D01*
X12970000Y-5754000D02*
X13000000Y-5784000D01*
X13000000Y-5754000D02*
X12970000Y-5784000D01*
X12987000Y-5127000D02*
X13017000Y-5157000D01*
X13017000Y-5127000D02*
X12987000Y-5157000D01*
X13091350Y-6250000D02*
X13121350Y-6280000D01*
X13121350Y-6250000D02*
X13091350Y-6280000D01*
X13177000Y-5507000D02*
X13207000Y-5537000D01*
X13207000Y-5507000D02*
X13177000Y-5537000D01*
X13189500Y-5307500D02*
X13219500Y-5337500D01*
X13219500Y-5307500D02*
X13189500Y-5337500D01*
X13204000Y-6250000D02*
X13234000Y-6280000D01*
X13234000Y-6250000D02*
X13204000Y-6280000D01*
X13288000Y-5746000D02*
X13318000Y-5776000D01*
X13318000Y-5746000D02*
X13288000Y-5776000D01*
X13288000Y-5908000D02*
X13318000Y-5938000D01*
X13318000Y-5908000D02*
X13288000Y-5938000D01*
X13328764Y-6193700D02*
X13358764Y-6223700D01*
X13358764Y-6193700D02*
X13328764Y-6223700D01*
X13334000Y-5163000D02*
X13364000Y-5193000D01*
X13364000Y-5163000D02*
X13334000Y-5193000D01*
X13338000Y-5284000D02*
X13368000Y-5314000D01*
X13368000Y-5284000D02*
X13338000Y-5314000D01*
X13368000Y-5828000D02*
X13398000Y-5858000D01*
X13398000Y-5828000D02*
X13368000Y-5858000D01*
X13449000Y-5747000D02*
X13479000Y-5777000D01*
X13479000Y-5747000D02*
X13449000Y-5777000D01*
X13449000Y-5908000D02*
X13479000Y-5938000D01*
X13479000Y-5908000D02*
X13449000Y-5938000D01*
X13473210Y-5516000D02*
X13503210Y-5546000D01*
X13503210Y-5516000D02*
X13473210Y-5546000D01*
X13528700Y-6250000D02*
X13558700Y-6280000D01*
X13558700Y-6250000D02*
X13528700Y-6280000D01*
X13558000Y-5247000D02*
X13588000Y-5277000D01*
X13588000Y-5247000D02*
X13558000Y-5277000D01*
X13658000Y-6250000D02*
X13688000Y-6280000D01*
X13688000Y-6250000D02*
X13658000Y-6280000D01*
X13668000Y-5247000D02*
X13698000Y-5277000D01*
X13698000Y-5247000D02*
X13668000Y-5277000D01*
X13776000Y-6463000D02*
X13806000Y-6493000D01*
X13806000Y-6463000D02*
X13776000Y-6493000D01*
X13815000Y-6221000D02*
X13845000Y-6251000D01*
X13845000Y-6221000D02*
X13815000Y-6251000D01*
X13818000Y-5621000D02*
X13848000Y-5651000D01*
X13848000Y-5621000D02*
X13818000Y-5651000D01*
X13938000Y-6211000D02*
X13968000Y-6241000D01*
X13968000Y-6211000D02*
X13938000Y-6241000D01*
X14314000Y-6017000D02*
X14344000Y-6047000D01*
X14344000Y-6017000D02*
X14314000Y-6047000D01*
X14524000Y-6007000D02*
X14554000Y-6037000D01*
X14554000Y-6007000D02*
X14524000Y-6037000D01*
X14524000Y-6328000D02*
X14554000Y-6358000D01*
X14554000Y-6328000D02*
X14524000Y-6358000D01*
X14526000Y-5452000D02*
X14556000Y-5482000D01*
X14556000Y-5452000D02*
X14526000Y-5482000D01*
D12*
X11925000Y-5070000D02*
G75*
G03*
X11925000Y-5070000I-30000J0D01*
G01*
D10*
X11925000Y-5110000D02*
X11925000Y-5030000D01*
X11925000Y-5030000D02*
G75*
G03*
X11865000Y-5030000I-30000J0D01*
G01*
X11865000Y-5030000D02*
X11865000Y-5110000D01*
X11865000Y-5110000D02*
G75*
G03*
X11925000Y-5110000I30000J0D01*
G01*
D12*
X11925000Y-5488000D02*
G75*
G03*
X11925000Y-5488000I-30000J0D01*
G01*
D10*
X11925000Y-5543000D02*
X11925000Y-5433000D01*
X11925000Y-5433000D02*
G75*
G03*
X11865000Y-5433000I-30000J0D01*
G01*
X11865000Y-5433000D02*
X11865000Y-5543000D01*
X11865000Y-5543000D02*
G75*
G03*
X11925000Y-5543000I30000J0D01*
G01*
D12*
X12789000Y-5070000D02*
G75*
G03*
X12789000Y-5070000I-30000J0D01*
G01*
D10*
X12789000Y-5110000D02*
X12789000Y-5030000D01*
X12789000Y-5030000D02*
G75*
G03*
X12729000Y-5030000I-30000J0D01*
G01*
X12729000Y-5030000D02*
X12729000Y-5110000D01*
X12729000Y-5110000D02*
G75*
G03*
X12789000Y-5110000I30000J0D01*
G01*
D12*
X12789000Y-5488000D02*
G75*
G03*
X12789000Y-5488000I-30000J0D01*
G01*
D10*
X12789000Y-5543000D02*
X12789000Y-5433000D01*
X12789000Y-5433000D02*
G75*
G03*
X12729000Y-5433000I-30000J0D01*
G01*
X12729000Y-5433000D02*
X12729000Y-5543000D01*
X12729000Y-5543000D02*
G75*
G03*
X12789000Y-5543000I30000J0D01*
G01*
X10080777Y-7320484D02*
X10080777Y-7120484D01*
X10080777Y-7120484D02*
X10128396Y-7120484D01*
X10128396Y-7120484D02*
X10156967Y-7130008D01*
X10156967Y-7130008D02*
X10176015Y-7149055D01*
X10176015Y-7149055D02*
X10185539Y-7168103D01*
X10185539Y-7168103D02*
X10195063Y-7206198D01*
X10195063Y-7206198D02*
X10195063Y-7234769D01*
X10195063Y-7234769D02*
X10185539Y-7272865D01*
X10185539Y-7272865D02*
X10176015Y-7291912D01*
X10176015Y-7291912D02*
X10156967Y-7310960D01*
X10156967Y-7310960D02*
X10128396Y-7320484D01*
X10128396Y-7320484D02*
X10080777Y-7320484D01*
X10280777Y-7320484D02*
X10280777Y-7187150D01*
X10280777Y-7225246D02*
X10290301Y-7206198D01*
X10290301Y-7206198D02*
X10299824Y-7196674D01*
X10299824Y-7196674D02*
X10318872Y-7187150D01*
X10318872Y-7187150D02*
X10337920Y-7187150D01*
X10404586Y-7320484D02*
X10404586Y-7187150D01*
X10404586Y-7120484D02*
X10395063Y-7130008D01*
X10395063Y-7130008D02*
X10404586Y-7139531D01*
X10404586Y-7139531D02*
X10414110Y-7130008D01*
X10414110Y-7130008D02*
X10404586Y-7120484D01*
X10404586Y-7120484D02*
X10404586Y-7139531D01*
X10528396Y-7320484D02*
X10509348Y-7310960D01*
X10509348Y-7310960D02*
X10499824Y-7291912D01*
X10499824Y-7291912D02*
X10499824Y-7120484D01*
X10633158Y-7320484D02*
X10614110Y-7310960D01*
X10614110Y-7310960D02*
X10604586Y-7291912D01*
X10604586Y-7291912D02*
X10604586Y-7120484D01*
X10861729Y-7320484D02*
X10861729Y-7120484D01*
X10861729Y-7120484D02*
X10928396Y-7263341D01*
X10928396Y-7263341D02*
X10995063Y-7120484D01*
X10995063Y-7120484D02*
X10995063Y-7320484D01*
X11176015Y-7320484D02*
X11176015Y-7215722D01*
X11176015Y-7215722D02*
X11166491Y-7196674D01*
X11166491Y-7196674D02*
X11147444Y-7187150D01*
X11147444Y-7187150D02*
X11109348Y-7187150D01*
X11109348Y-7187150D02*
X11090301Y-7196674D01*
X11176015Y-7310960D02*
X11156967Y-7320484D01*
X11156967Y-7320484D02*
X11109348Y-7320484D01*
X11109348Y-7320484D02*
X11090301Y-7310960D01*
X11090301Y-7310960D02*
X11080777Y-7291912D01*
X11080777Y-7291912D02*
X11080777Y-7272865D01*
X11080777Y-7272865D02*
X11090301Y-7253817D01*
X11090301Y-7253817D02*
X11109348Y-7244293D01*
X11109348Y-7244293D02*
X11156967Y-7244293D01*
X11156967Y-7244293D02*
X11176015Y-7234769D01*
X11271253Y-7187150D02*
X11271253Y-7387150D01*
X11271253Y-7196674D02*
X11290301Y-7187150D01*
X11290301Y-7187150D02*
X11328396Y-7187150D01*
X11328396Y-7187150D02*
X11347443Y-7196674D01*
X11347443Y-7196674D02*
X11356967Y-7206198D01*
X11356967Y-7206198D02*
X11366491Y-7225246D01*
X11366491Y-7225246D02*
X11366491Y-7282388D01*
X11366491Y-7282388D02*
X11356967Y-7301436D01*
X11356967Y-7301436D02*
X11347443Y-7310960D01*
X11347443Y-7310960D02*
X11328396Y-7320484D01*
X11328396Y-7320484D02*
X11290301Y-7320484D01*
X11290301Y-7320484D02*
X11271253Y-7310960D01*
X11452205Y-7301436D02*
X11461729Y-7310960D01*
X11461729Y-7310960D02*
X11452205Y-7320484D01*
X11452205Y-7320484D02*
X11442682Y-7310960D01*
X11442682Y-7310960D02*
X11452205Y-7301436D01*
X11452205Y-7301436D02*
X11452205Y-7320484D01*
X11452205Y-7196674D02*
X11461729Y-7206198D01*
X11461729Y-7206198D02*
X11452205Y-7215722D01*
X11452205Y-7215722D02*
X11442682Y-7206198D01*
X11442682Y-7206198D02*
X11452205Y-7196674D01*
X11452205Y-7196674D02*
X11452205Y-7215722D01*
D11*
X9790000Y-7634000D02*
X9820000Y-7664000D01*
X9820000Y-7634000D02*
X9790000Y-7664000D01*
D10*
X10118872Y-7540484D02*
X10137920Y-7540484D01*
X10137920Y-7540484D02*
X10156967Y-7550008D01*
X10156967Y-7550008D02*
X10166491Y-7559531D01*
X10166491Y-7559531D02*
X10176015Y-7578579D01*
X10176015Y-7578579D02*
X10185539Y-7616674D01*
X10185539Y-7616674D02*
X10185539Y-7664293D01*
X10185539Y-7664293D02*
X10176015Y-7702388D01*
X10176015Y-7702388D02*
X10166491Y-7721436D01*
X10166491Y-7721436D02*
X10156967Y-7730960D01*
X10156967Y-7730960D02*
X10137920Y-7740484D01*
X10137920Y-7740484D02*
X10118872Y-7740484D01*
X10118872Y-7740484D02*
X10099824Y-7730960D01*
X10099824Y-7730960D02*
X10090301Y-7721436D01*
X10090301Y-7721436D02*
X10080777Y-7702388D01*
X10080777Y-7702388D02*
X10071253Y-7664293D01*
X10071253Y-7664293D02*
X10071253Y-7616674D01*
X10071253Y-7616674D02*
X10080777Y-7578579D01*
X10080777Y-7578579D02*
X10090301Y-7559531D01*
X10090301Y-7559531D02*
X10099824Y-7550008D01*
X10099824Y-7550008D02*
X10118872Y-7540484D01*
X10271253Y-7721436D02*
X10280777Y-7730960D01*
X10280777Y-7730960D02*
X10271253Y-7740484D01*
X10271253Y-7740484D02*
X10261729Y-7730960D01*
X10261729Y-7730960D02*
X10271253Y-7721436D01*
X10271253Y-7721436D02*
X10271253Y-7740484D01*
X10347444Y-7540484D02*
X10471253Y-7540484D01*
X10471253Y-7540484D02*
X10404586Y-7616674D01*
X10404586Y-7616674D02*
X10433158Y-7616674D01*
X10433158Y-7616674D02*
X10452205Y-7626198D01*
X10452205Y-7626198D02*
X10461729Y-7635722D01*
X10461729Y-7635722D02*
X10471253Y-7654769D01*
X10471253Y-7654769D02*
X10471253Y-7702388D01*
X10471253Y-7702388D02*
X10461729Y-7721436D01*
X10461729Y-7721436D02*
X10452205Y-7730960D01*
X10452205Y-7730960D02*
X10433158Y-7740484D01*
X10433158Y-7740484D02*
X10376015Y-7740484D01*
X10376015Y-7740484D02*
X10356967Y-7730960D01*
X10356967Y-7730960D02*
X10347444Y-7721436D01*
X10595063Y-7540484D02*
X10614110Y-7540484D01*
X10614110Y-7540484D02*
X10633158Y-7550008D01*
X10633158Y-7550008D02*
X10642682Y-7559531D01*
X10642682Y-7559531D02*
X10652205Y-7578579D01*
X10652205Y-7578579D02*
X10661729Y-7616674D01*
X10661729Y-7616674D02*
X10661729Y-7664293D01*
X10661729Y-7664293D02*
X10652205Y-7702388D01*
X10652205Y-7702388D02*
X10642682Y-7721436D01*
X10642682Y-7721436D02*
X10633158Y-7730960D01*
X10633158Y-7730960D02*
X10614110Y-7740484D01*
X10614110Y-7740484D02*
X10595063Y-7740484D01*
X10595063Y-7740484D02*
X10576015Y-7730960D01*
X10576015Y-7730960D02*
X10566491Y-7721436D01*
X10566491Y-7721436D02*
X10556967Y-7702388D01*
X10556967Y-7702388D02*
X10547444Y-7664293D01*
X10547444Y-7664293D02*
X10547444Y-7616674D01*
X10547444Y-7616674D02*
X10556967Y-7578579D01*
X10556967Y-7578579D02*
X10566491Y-7559531D01*
X10566491Y-7559531D02*
X10576015Y-7550008D01*
X10576015Y-7550008D02*
X10595063Y-7540484D01*
X10785539Y-7540484D02*
X10804586Y-7540484D01*
X10804586Y-7540484D02*
X10823634Y-7550008D01*
X10823634Y-7550008D02*
X10833158Y-7559531D01*
X10833158Y-7559531D02*
X10842682Y-7578579D01*
X10842682Y-7578579D02*
X10852205Y-7616674D01*
X10852205Y-7616674D02*
X10852205Y-7664293D01*
X10852205Y-7664293D02*
X10842682Y-7702388D01*
X10842682Y-7702388D02*
X10833158Y-7721436D01*
X10833158Y-7721436D02*
X10823634Y-7730960D01*
X10823634Y-7730960D02*
X10804586Y-7740484D01*
X10804586Y-7740484D02*
X10785539Y-7740484D01*
X10785539Y-7740484D02*
X10766491Y-7730960D01*
X10766491Y-7730960D02*
X10756967Y-7721436D01*
X10756967Y-7721436D02*
X10747444Y-7702388D01*
X10747444Y-7702388D02*
X10737920Y-7664293D01*
X10737920Y-7664293D02*
X10737920Y-7616674D01*
X10737920Y-7616674D02*
X10747444Y-7578579D01*
X10747444Y-7578579D02*
X10756967Y-7559531D01*
X10756967Y-7559531D02*
X10766491Y-7550008D01*
X10766491Y-7550008D02*
X10785539Y-7540484D01*
X10937920Y-7740484D02*
X10937920Y-7607150D01*
X10937920Y-7626198D02*
X10947444Y-7616674D01*
X10947444Y-7616674D02*
X10966491Y-7607150D01*
X10966491Y-7607150D02*
X10995063Y-7607150D01*
X10995063Y-7607150D02*
X11014110Y-7616674D01*
X11014110Y-7616674D02*
X11023634Y-7635722D01*
X11023634Y-7635722D02*
X11023634Y-7740484D01*
X11023634Y-7635722D02*
X11033158Y-7616674D01*
X11033158Y-7616674D02*
X11052205Y-7607150D01*
X11052205Y-7607150D02*
X11080777Y-7607150D01*
X11080777Y-7607150D02*
X11099825Y-7616674D01*
X11099825Y-7616674D02*
X11109348Y-7635722D01*
X11109348Y-7635722D02*
X11109348Y-7740484D01*
X11204586Y-7740484D02*
X11204586Y-7607150D01*
X11204586Y-7626198D02*
X11214110Y-7616674D01*
X11214110Y-7616674D02*
X11233158Y-7607150D01*
X11233158Y-7607150D02*
X11261729Y-7607150D01*
X11261729Y-7607150D02*
X11280777Y-7616674D01*
X11280777Y-7616674D02*
X11290301Y-7635722D01*
X11290301Y-7635722D02*
X11290301Y-7740484D01*
X11290301Y-7635722D02*
X11299824Y-7616674D01*
X11299824Y-7616674D02*
X11318872Y-7607150D01*
X11318872Y-7607150D02*
X11347443Y-7607150D01*
X11347443Y-7607150D02*
X11366491Y-7616674D01*
X11366491Y-7616674D02*
X11376015Y-7635722D01*
X11376015Y-7635722D02*
X11376015Y-7740484D01*
X11766491Y-7530960D02*
X11595063Y-7788103D01*
X12023634Y-7540484D02*
X12042682Y-7540484D01*
X12042682Y-7540484D02*
X12061729Y-7550008D01*
X12061729Y-7550008D02*
X12071253Y-7559531D01*
X12071253Y-7559531D02*
X12080777Y-7578579D01*
X12080777Y-7578579D02*
X12090301Y-7616674D01*
X12090301Y-7616674D02*
X12090301Y-7664293D01*
X12090301Y-7664293D02*
X12080777Y-7702388D01*
X12080777Y-7702388D02*
X12071253Y-7721436D01*
X12071253Y-7721436D02*
X12061729Y-7730960D01*
X12061729Y-7730960D02*
X12042682Y-7740484D01*
X12042682Y-7740484D02*
X12023634Y-7740484D01*
X12023634Y-7740484D02*
X12004586Y-7730960D01*
X12004586Y-7730960D02*
X11995063Y-7721436D01*
X11995063Y-7721436D02*
X11985539Y-7702388D01*
X11985539Y-7702388D02*
X11976015Y-7664293D01*
X11976015Y-7664293D02*
X11976015Y-7616674D01*
X11976015Y-7616674D02*
X11985539Y-7578579D01*
X11985539Y-7578579D02*
X11995063Y-7559531D01*
X11995063Y-7559531D02*
X12004586Y-7550008D01*
X12004586Y-7550008D02*
X12023634Y-7540484D01*
X12176015Y-7721436D02*
X12185539Y-7730960D01*
X12185539Y-7730960D02*
X12176015Y-7740484D01*
X12176015Y-7740484D02*
X12166491Y-7730960D01*
X12166491Y-7730960D02*
X12176015Y-7721436D01*
X12176015Y-7721436D02*
X12176015Y-7740484D01*
X12309348Y-7540484D02*
X12328396Y-7540484D01*
X12328396Y-7540484D02*
X12347444Y-7550008D01*
X12347444Y-7550008D02*
X12356967Y-7559531D01*
X12356967Y-7559531D02*
X12366491Y-7578579D01*
X12366491Y-7578579D02*
X12376015Y-7616674D01*
X12376015Y-7616674D02*
X12376015Y-7664293D01*
X12376015Y-7664293D02*
X12366491Y-7702388D01*
X12366491Y-7702388D02*
X12356967Y-7721436D01*
X12356967Y-7721436D02*
X12347444Y-7730960D01*
X12347444Y-7730960D02*
X12328396Y-7740484D01*
X12328396Y-7740484D02*
X12309348Y-7740484D01*
X12309348Y-7740484D02*
X12290301Y-7730960D01*
X12290301Y-7730960D02*
X12280777Y-7721436D01*
X12280777Y-7721436D02*
X12271253Y-7702388D01*
X12271253Y-7702388D02*
X12261729Y-7664293D01*
X12261729Y-7664293D02*
X12261729Y-7616674D01*
X12261729Y-7616674D02*
X12271253Y-7578579D01*
X12271253Y-7578579D02*
X12280777Y-7559531D01*
X12280777Y-7559531D02*
X12290301Y-7550008D01*
X12290301Y-7550008D02*
X12309348Y-7540484D01*
X12566491Y-7740484D02*
X12452206Y-7740484D01*
X12509348Y-7740484D02*
X12509348Y-7540484D01*
X12509348Y-7540484D02*
X12490301Y-7569055D01*
X12490301Y-7569055D02*
X12471253Y-7588103D01*
X12471253Y-7588103D02*
X12452206Y-7597627D01*
X12756967Y-7740484D02*
X12642682Y-7740484D01*
X12699825Y-7740484D02*
X12699825Y-7540484D01*
X12699825Y-7540484D02*
X12680777Y-7569055D01*
X12680777Y-7569055D02*
X12661729Y-7588103D01*
X12661729Y-7588103D02*
X12642682Y-7597627D01*
X12871253Y-7626198D02*
X12852206Y-7616674D01*
X12852206Y-7616674D02*
X12842682Y-7607150D01*
X12842682Y-7607150D02*
X12833158Y-7588103D01*
X12833158Y-7588103D02*
X12833158Y-7578579D01*
X12833158Y-7578579D02*
X12842682Y-7559531D01*
X12842682Y-7559531D02*
X12852206Y-7550008D01*
X12852206Y-7550008D02*
X12871253Y-7540484D01*
X12871253Y-7540484D02*
X12909348Y-7540484D01*
X12909348Y-7540484D02*
X12928396Y-7550008D01*
X12928396Y-7550008D02*
X12937920Y-7559531D01*
X12937920Y-7559531D02*
X12947444Y-7578579D01*
X12947444Y-7578579D02*
X12947444Y-7588103D01*
X12947444Y-7588103D02*
X12937920Y-7607150D01*
X12937920Y-7607150D02*
X12928396Y-7616674D01*
X12928396Y-7616674D02*
X12909348Y-7626198D01*
X12909348Y-7626198D02*
X12871253Y-7626198D01*
X12871253Y-7626198D02*
X12852206Y-7635722D01*
X12852206Y-7635722D02*
X12842682Y-7645246D01*
X12842682Y-7645246D02*
X12833158Y-7664293D01*
X12833158Y-7664293D02*
X12833158Y-7702388D01*
X12833158Y-7702388D02*
X12842682Y-7721436D01*
X12842682Y-7721436D02*
X12852206Y-7730960D01*
X12852206Y-7730960D02*
X12871253Y-7740484D01*
X12871253Y-7740484D02*
X12909348Y-7740484D01*
X12909348Y-7740484D02*
X12928396Y-7730960D01*
X12928396Y-7730960D02*
X12937920Y-7721436D01*
X12937920Y-7721436D02*
X12947444Y-7702388D01*
X12947444Y-7702388D02*
X12947444Y-7664293D01*
X12947444Y-7664293D02*
X12937920Y-7645246D01*
X12937920Y-7645246D02*
X12928396Y-7635722D01*
X12928396Y-7635722D02*
X12909348Y-7626198D01*
X13023634Y-7540484D02*
X13023634Y-7578579D01*
X13099825Y-7540484D02*
X13099825Y-7578579D01*
X13395063Y-7816674D02*
X13385539Y-7807150D01*
X13385539Y-7807150D02*
X13366491Y-7778579D01*
X13366491Y-7778579D02*
X13356968Y-7759531D01*
X13356968Y-7759531D02*
X13347444Y-7730960D01*
X13347444Y-7730960D02*
X13337920Y-7683341D01*
X13337920Y-7683341D02*
X13337920Y-7645246D01*
X13337920Y-7645246D02*
X13347444Y-7597627D01*
X13347444Y-7597627D02*
X13356968Y-7569055D01*
X13356968Y-7569055D02*
X13366491Y-7550008D01*
X13366491Y-7550008D02*
X13385539Y-7521436D01*
X13385539Y-7521436D02*
X13395063Y-7511912D01*
X13556968Y-7540484D02*
X13518872Y-7540484D01*
X13518872Y-7540484D02*
X13499825Y-7550008D01*
X13499825Y-7550008D02*
X13490301Y-7559531D01*
X13490301Y-7559531D02*
X13471253Y-7588103D01*
X13471253Y-7588103D02*
X13461729Y-7626198D01*
X13461729Y-7626198D02*
X13461729Y-7702388D01*
X13461729Y-7702388D02*
X13471253Y-7721436D01*
X13471253Y-7721436D02*
X13480777Y-7730960D01*
X13480777Y-7730960D02*
X13499825Y-7740484D01*
X13499825Y-7740484D02*
X13537920Y-7740484D01*
X13537920Y-7740484D02*
X13556968Y-7730960D01*
X13556968Y-7730960D02*
X13566491Y-7721436D01*
X13566491Y-7721436D02*
X13576015Y-7702388D01*
X13576015Y-7702388D02*
X13576015Y-7654769D01*
X13576015Y-7654769D02*
X13566491Y-7635722D01*
X13566491Y-7635722D02*
X13556968Y-7626198D01*
X13556968Y-7626198D02*
X13537920Y-7616674D01*
X13537920Y-7616674D02*
X13499825Y-7616674D01*
X13499825Y-7616674D02*
X13480777Y-7626198D01*
X13480777Y-7626198D02*
X13471253Y-7635722D01*
X13471253Y-7635722D02*
X13461729Y-7654769D01*
X13671253Y-7740484D02*
X13709348Y-7740484D01*
X13709348Y-7740484D02*
X13728396Y-7730960D01*
X13728396Y-7730960D02*
X13737920Y-7721436D01*
X13737920Y-7721436D02*
X13756968Y-7692865D01*
X13756968Y-7692865D02*
X13766491Y-7654769D01*
X13766491Y-7654769D02*
X13766491Y-7578579D01*
X13766491Y-7578579D02*
X13756968Y-7559531D01*
X13756968Y-7559531D02*
X13747444Y-7550008D01*
X13747444Y-7550008D02*
X13728396Y-7540484D01*
X13728396Y-7540484D02*
X13690301Y-7540484D01*
X13690301Y-7540484D02*
X13671253Y-7550008D01*
X13671253Y-7550008D02*
X13661729Y-7559531D01*
X13661729Y-7559531D02*
X13652206Y-7578579D01*
X13652206Y-7578579D02*
X13652206Y-7626198D01*
X13652206Y-7626198D02*
X13661729Y-7645246D01*
X13661729Y-7645246D02*
X13671253Y-7654769D01*
X13671253Y-7654769D02*
X13690301Y-7664293D01*
X13690301Y-7664293D02*
X13728396Y-7664293D01*
X13728396Y-7664293D02*
X13747444Y-7654769D01*
X13747444Y-7654769D02*
X13756968Y-7645246D01*
X13756968Y-7645246D02*
X13766491Y-7626198D01*
X14004587Y-7740484D02*
X14004587Y-7540484D01*
X14090301Y-7740484D02*
X14090301Y-7635722D01*
X14090301Y-7635722D02*
X14080777Y-7616674D01*
X14080777Y-7616674D02*
X14061730Y-7607150D01*
X14061730Y-7607150D02*
X14033158Y-7607150D01*
X14033158Y-7607150D02*
X14014110Y-7616674D01*
X14014110Y-7616674D02*
X14004587Y-7626198D01*
X14214110Y-7740484D02*
X14195063Y-7730960D01*
X14195063Y-7730960D02*
X14185539Y-7721436D01*
X14185539Y-7721436D02*
X14176015Y-7702388D01*
X14176015Y-7702388D02*
X14176015Y-7645246D01*
X14176015Y-7645246D02*
X14185539Y-7626198D01*
X14185539Y-7626198D02*
X14195063Y-7616674D01*
X14195063Y-7616674D02*
X14214110Y-7607150D01*
X14214110Y-7607150D02*
X14242682Y-7607150D01*
X14242682Y-7607150D02*
X14261730Y-7616674D01*
X14261730Y-7616674D02*
X14271253Y-7626198D01*
X14271253Y-7626198D02*
X14280777Y-7645246D01*
X14280777Y-7645246D02*
X14280777Y-7702388D01*
X14280777Y-7702388D02*
X14271253Y-7721436D01*
X14271253Y-7721436D02*
X14261730Y-7730960D01*
X14261730Y-7730960D02*
X14242682Y-7740484D01*
X14242682Y-7740484D02*
X14214110Y-7740484D01*
X14395063Y-7740484D02*
X14376015Y-7730960D01*
X14376015Y-7730960D02*
X14366491Y-7711912D01*
X14366491Y-7711912D02*
X14366491Y-7540484D01*
X14547444Y-7730960D02*
X14528396Y-7740484D01*
X14528396Y-7740484D02*
X14490301Y-7740484D01*
X14490301Y-7740484D02*
X14471253Y-7730960D01*
X14471253Y-7730960D02*
X14461730Y-7711912D01*
X14461730Y-7711912D02*
X14461730Y-7635722D01*
X14461730Y-7635722D02*
X14471253Y-7616674D01*
X14471253Y-7616674D02*
X14490301Y-7607150D01*
X14490301Y-7607150D02*
X14528396Y-7607150D01*
X14528396Y-7607150D02*
X14547444Y-7616674D01*
X14547444Y-7616674D02*
X14556968Y-7635722D01*
X14556968Y-7635722D02*
X14556968Y-7654769D01*
X14556968Y-7654769D02*
X14461730Y-7673817D01*
X14633158Y-7730960D02*
X14652206Y-7740484D01*
X14652206Y-7740484D02*
X14690301Y-7740484D01*
X14690301Y-7740484D02*
X14709349Y-7730960D01*
X14709349Y-7730960D02*
X14718872Y-7711912D01*
X14718872Y-7711912D02*
X14718872Y-7702388D01*
X14718872Y-7702388D02*
X14709349Y-7683341D01*
X14709349Y-7683341D02*
X14690301Y-7673817D01*
X14690301Y-7673817D02*
X14661730Y-7673817D01*
X14661730Y-7673817D02*
X14642682Y-7664293D01*
X14642682Y-7664293D02*
X14633158Y-7645246D01*
X14633158Y-7645246D02*
X14633158Y-7635722D01*
X14633158Y-7635722D02*
X14642682Y-7616674D01*
X14642682Y-7616674D02*
X14661730Y-7607150D01*
X14661730Y-7607150D02*
X14690301Y-7607150D01*
X14690301Y-7607150D02*
X14709349Y-7616674D01*
X14785539Y-7816674D02*
X14795063Y-7807150D01*
X14795063Y-7807150D02*
X14814111Y-7778579D01*
X14814111Y-7778579D02*
X14823634Y-7759531D01*
X14823634Y-7759531D02*
X14833158Y-7730960D01*
X14833158Y-7730960D02*
X14842682Y-7683341D01*
X14842682Y-7683341D02*
X14842682Y-7645246D01*
X14842682Y-7645246D02*
X14833158Y-7597627D01*
X14833158Y-7597627D02*
X14823634Y-7569055D01*
X14823634Y-7569055D02*
X14814111Y-7550008D01*
X14814111Y-7550008D02*
X14795063Y-7521436D01*
X14795063Y-7521436D02*
X14785539Y-7511912D01*
D12*
X9820000Y-7913000D02*
G75*
G03*
X9820000Y-7913000I-30000J0D01*
G01*
D10*
X10118872Y-7804484D02*
X10137920Y-7804484D01*
X10137920Y-7804484D02*
X10156967Y-7814008D01*
X10156967Y-7814008D02*
X10166491Y-7823531D01*
X10166491Y-7823531D02*
X10176015Y-7842579D01*
X10176015Y-7842579D02*
X10185539Y-7880674D01*
X10185539Y-7880674D02*
X10185539Y-7928293D01*
X10185539Y-7928293D02*
X10176015Y-7966388D01*
X10176015Y-7966388D02*
X10166491Y-7985436D01*
X10166491Y-7985436D02*
X10156967Y-7994960D01*
X10156967Y-7994960D02*
X10137920Y-8004484D01*
X10137920Y-8004484D02*
X10118872Y-8004484D01*
X10118872Y-8004484D02*
X10099824Y-7994960D01*
X10099824Y-7994960D02*
X10090301Y-7985436D01*
X10090301Y-7985436D02*
X10080777Y-7966388D01*
X10080777Y-7966388D02*
X10071253Y-7928293D01*
X10071253Y-7928293D02*
X10071253Y-7880674D01*
X10071253Y-7880674D02*
X10080777Y-7842579D01*
X10080777Y-7842579D02*
X10090301Y-7823531D01*
X10090301Y-7823531D02*
X10099824Y-7814008D01*
X10099824Y-7814008D02*
X10118872Y-7804484D01*
X10271253Y-7985436D02*
X10280777Y-7994960D01*
X10280777Y-7994960D02*
X10271253Y-8004484D01*
X10271253Y-8004484D02*
X10261729Y-7994960D01*
X10261729Y-7994960D02*
X10271253Y-7985436D01*
X10271253Y-7985436D02*
X10271253Y-8004484D01*
X10452205Y-7804484D02*
X10414110Y-7804484D01*
X10414110Y-7804484D02*
X10395063Y-7814008D01*
X10395063Y-7814008D02*
X10385539Y-7823531D01*
X10385539Y-7823531D02*
X10366491Y-7852103D01*
X10366491Y-7852103D02*
X10356967Y-7890198D01*
X10356967Y-7890198D02*
X10356967Y-7966388D01*
X10356967Y-7966388D02*
X10366491Y-7985436D01*
X10366491Y-7985436D02*
X10376015Y-7994960D01*
X10376015Y-7994960D02*
X10395063Y-8004484D01*
X10395063Y-8004484D02*
X10433158Y-8004484D01*
X10433158Y-8004484D02*
X10452205Y-7994960D01*
X10452205Y-7994960D02*
X10461729Y-7985436D01*
X10461729Y-7985436D02*
X10471253Y-7966388D01*
X10471253Y-7966388D02*
X10471253Y-7918769D01*
X10471253Y-7918769D02*
X10461729Y-7899722D01*
X10461729Y-7899722D02*
X10452205Y-7890198D01*
X10452205Y-7890198D02*
X10433158Y-7880674D01*
X10433158Y-7880674D02*
X10395063Y-7880674D01*
X10395063Y-7880674D02*
X10376015Y-7890198D01*
X10376015Y-7890198D02*
X10366491Y-7899722D01*
X10366491Y-7899722D02*
X10356967Y-7918769D01*
X10595063Y-7804484D02*
X10614110Y-7804484D01*
X10614110Y-7804484D02*
X10633158Y-7814008D01*
X10633158Y-7814008D02*
X10642682Y-7823531D01*
X10642682Y-7823531D02*
X10652205Y-7842579D01*
X10652205Y-7842579D02*
X10661729Y-7880674D01*
X10661729Y-7880674D02*
X10661729Y-7928293D01*
X10661729Y-7928293D02*
X10652205Y-7966388D01*
X10652205Y-7966388D02*
X10642682Y-7985436D01*
X10642682Y-7985436D02*
X10633158Y-7994960D01*
X10633158Y-7994960D02*
X10614110Y-8004484D01*
X10614110Y-8004484D02*
X10595063Y-8004484D01*
X10595063Y-8004484D02*
X10576015Y-7994960D01*
X10576015Y-7994960D02*
X10566491Y-7985436D01*
X10566491Y-7985436D02*
X10556967Y-7966388D01*
X10556967Y-7966388D02*
X10547444Y-7928293D01*
X10547444Y-7928293D02*
X10547444Y-7880674D01*
X10547444Y-7880674D02*
X10556967Y-7842579D01*
X10556967Y-7842579D02*
X10566491Y-7823531D01*
X10566491Y-7823531D02*
X10576015Y-7814008D01*
X10576015Y-7814008D02*
X10595063Y-7804484D01*
X10785539Y-7804484D02*
X10804586Y-7804484D01*
X10804586Y-7804484D02*
X10823634Y-7814008D01*
X10823634Y-7814008D02*
X10833158Y-7823531D01*
X10833158Y-7823531D02*
X10842682Y-7842579D01*
X10842682Y-7842579D02*
X10852205Y-7880674D01*
X10852205Y-7880674D02*
X10852205Y-7928293D01*
X10852205Y-7928293D02*
X10842682Y-7966388D01*
X10842682Y-7966388D02*
X10833158Y-7985436D01*
X10833158Y-7985436D02*
X10823634Y-7994960D01*
X10823634Y-7994960D02*
X10804586Y-8004484D01*
X10804586Y-8004484D02*
X10785539Y-8004484D01*
X10785539Y-8004484D02*
X10766491Y-7994960D01*
X10766491Y-7994960D02*
X10756967Y-7985436D01*
X10756967Y-7985436D02*
X10747444Y-7966388D01*
X10747444Y-7966388D02*
X10737920Y-7928293D01*
X10737920Y-7928293D02*
X10737920Y-7880674D01*
X10737920Y-7880674D02*
X10747444Y-7842579D01*
X10747444Y-7842579D02*
X10756967Y-7823531D01*
X10756967Y-7823531D02*
X10766491Y-7814008D01*
X10766491Y-7814008D02*
X10785539Y-7804484D01*
X10937920Y-8004484D02*
X10937920Y-7871150D01*
X10937920Y-7890198D02*
X10947444Y-7880674D01*
X10947444Y-7880674D02*
X10966491Y-7871150D01*
X10966491Y-7871150D02*
X10995063Y-7871150D01*
X10995063Y-7871150D02*
X11014110Y-7880674D01*
X11014110Y-7880674D02*
X11023634Y-7899722D01*
X11023634Y-7899722D02*
X11023634Y-8004484D01*
X11023634Y-7899722D02*
X11033158Y-7880674D01*
X11033158Y-7880674D02*
X11052205Y-7871150D01*
X11052205Y-7871150D02*
X11080777Y-7871150D01*
X11080777Y-7871150D02*
X11099825Y-7880674D01*
X11099825Y-7880674D02*
X11109348Y-7899722D01*
X11109348Y-7899722D02*
X11109348Y-8004484D01*
X11204586Y-8004484D02*
X11204586Y-7871150D01*
X11204586Y-7890198D02*
X11214110Y-7880674D01*
X11214110Y-7880674D02*
X11233158Y-7871150D01*
X11233158Y-7871150D02*
X11261729Y-7871150D01*
X11261729Y-7871150D02*
X11280777Y-7880674D01*
X11280777Y-7880674D02*
X11290301Y-7899722D01*
X11290301Y-7899722D02*
X11290301Y-8004484D01*
X11290301Y-7899722D02*
X11299824Y-7880674D01*
X11299824Y-7880674D02*
X11318872Y-7871150D01*
X11318872Y-7871150D02*
X11347443Y-7871150D01*
X11347443Y-7871150D02*
X11366491Y-7880674D01*
X11366491Y-7880674D02*
X11376015Y-7899722D01*
X11376015Y-7899722D02*
X11376015Y-8004484D01*
X11766491Y-7794960D02*
X11595063Y-8052103D01*
X12023634Y-7804484D02*
X12042682Y-7804484D01*
X12042682Y-7804484D02*
X12061729Y-7814008D01*
X12061729Y-7814008D02*
X12071253Y-7823531D01*
X12071253Y-7823531D02*
X12080777Y-7842579D01*
X12080777Y-7842579D02*
X12090301Y-7880674D01*
X12090301Y-7880674D02*
X12090301Y-7928293D01*
X12090301Y-7928293D02*
X12080777Y-7966388D01*
X12080777Y-7966388D02*
X12071253Y-7985436D01*
X12071253Y-7985436D02*
X12061729Y-7994960D01*
X12061729Y-7994960D02*
X12042682Y-8004484D01*
X12042682Y-8004484D02*
X12023634Y-8004484D01*
X12023634Y-8004484D02*
X12004586Y-7994960D01*
X12004586Y-7994960D02*
X11995063Y-7985436D01*
X11995063Y-7985436D02*
X11985539Y-7966388D01*
X11985539Y-7966388D02*
X11976015Y-7928293D01*
X11976015Y-7928293D02*
X11976015Y-7880674D01*
X11976015Y-7880674D02*
X11985539Y-7842579D01*
X11985539Y-7842579D02*
X11995063Y-7823531D01*
X11995063Y-7823531D02*
X12004586Y-7814008D01*
X12004586Y-7814008D02*
X12023634Y-7804484D01*
X12176015Y-7985436D02*
X12185539Y-7994960D01*
X12185539Y-7994960D02*
X12176015Y-8004484D01*
X12176015Y-8004484D02*
X12166491Y-7994960D01*
X12166491Y-7994960D02*
X12176015Y-7985436D01*
X12176015Y-7985436D02*
X12176015Y-8004484D01*
X12309348Y-7804484D02*
X12328396Y-7804484D01*
X12328396Y-7804484D02*
X12347444Y-7814008D01*
X12347444Y-7814008D02*
X12356967Y-7823531D01*
X12356967Y-7823531D02*
X12366491Y-7842579D01*
X12366491Y-7842579D02*
X12376015Y-7880674D01*
X12376015Y-7880674D02*
X12376015Y-7928293D01*
X12376015Y-7928293D02*
X12366491Y-7966388D01*
X12366491Y-7966388D02*
X12356967Y-7985436D01*
X12356967Y-7985436D02*
X12347444Y-7994960D01*
X12347444Y-7994960D02*
X12328396Y-8004484D01*
X12328396Y-8004484D02*
X12309348Y-8004484D01*
X12309348Y-8004484D02*
X12290301Y-7994960D01*
X12290301Y-7994960D02*
X12280777Y-7985436D01*
X12280777Y-7985436D02*
X12271253Y-7966388D01*
X12271253Y-7966388D02*
X12261729Y-7928293D01*
X12261729Y-7928293D02*
X12261729Y-7880674D01*
X12261729Y-7880674D02*
X12271253Y-7842579D01*
X12271253Y-7842579D02*
X12280777Y-7823531D01*
X12280777Y-7823531D02*
X12290301Y-7814008D01*
X12290301Y-7814008D02*
X12309348Y-7804484D01*
X12452206Y-7823531D02*
X12461729Y-7814008D01*
X12461729Y-7814008D02*
X12480777Y-7804484D01*
X12480777Y-7804484D02*
X12528396Y-7804484D01*
X12528396Y-7804484D02*
X12547444Y-7814008D01*
X12547444Y-7814008D02*
X12556967Y-7823531D01*
X12556967Y-7823531D02*
X12566491Y-7842579D01*
X12566491Y-7842579D02*
X12566491Y-7861627D01*
X12566491Y-7861627D02*
X12556967Y-7890198D01*
X12556967Y-7890198D02*
X12442682Y-8004484D01*
X12442682Y-8004484D02*
X12566491Y-8004484D01*
X12633158Y-7804484D02*
X12756967Y-7804484D01*
X12756967Y-7804484D02*
X12690301Y-7880674D01*
X12690301Y-7880674D02*
X12718872Y-7880674D01*
X12718872Y-7880674D02*
X12737920Y-7890198D01*
X12737920Y-7890198D02*
X12747444Y-7899722D01*
X12747444Y-7899722D02*
X12756967Y-7918769D01*
X12756967Y-7918769D02*
X12756967Y-7966388D01*
X12756967Y-7966388D02*
X12747444Y-7985436D01*
X12747444Y-7985436D02*
X12737920Y-7994960D01*
X12737920Y-7994960D02*
X12718872Y-8004484D01*
X12718872Y-8004484D02*
X12661729Y-8004484D01*
X12661729Y-8004484D02*
X12642682Y-7994960D01*
X12642682Y-7994960D02*
X12633158Y-7985436D01*
X12928396Y-7804484D02*
X12890301Y-7804484D01*
X12890301Y-7804484D02*
X12871253Y-7814008D01*
X12871253Y-7814008D02*
X12861729Y-7823531D01*
X12861729Y-7823531D02*
X12842682Y-7852103D01*
X12842682Y-7852103D02*
X12833158Y-7890198D01*
X12833158Y-7890198D02*
X12833158Y-7966388D01*
X12833158Y-7966388D02*
X12842682Y-7985436D01*
X12842682Y-7985436D02*
X12852206Y-7994960D01*
X12852206Y-7994960D02*
X12871253Y-8004484D01*
X12871253Y-8004484D02*
X12909348Y-8004484D01*
X12909348Y-8004484D02*
X12928396Y-7994960D01*
X12928396Y-7994960D02*
X12937920Y-7985436D01*
X12937920Y-7985436D02*
X12947444Y-7966388D01*
X12947444Y-7966388D02*
X12947444Y-7918769D01*
X12947444Y-7918769D02*
X12937920Y-7899722D01*
X12937920Y-7899722D02*
X12928396Y-7890198D01*
X12928396Y-7890198D02*
X12909348Y-7880674D01*
X12909348Y-7880674D02*
X12871253Y-7880674D01*
X12871253Y-7880674D02*
X12852206Y-7890198D01*
X12852206Y-7890198D02*
X12842682Y-7899722D01*
X12842682Y-7899722D02*
X12833158Y-7918769D01*
X13023634Y-7804484D02*
X13023634Y-7842579D01*
X13099825Y-7804484D02*
X13099825Y-7842579D01*
X13395063Y-8080674D02*
X13385539Y-8071150D01*
X13385539Y-8071150D02*
X13366491Y-8042579D01*
X13366491Y-8042579D02*
X13356968Y-8023531D01*
X13356968Y-8023531D02*
X13347444Y-7994960D01*
X13347444Y-7994960D02*
X13337920Y-7947341D01*
X13337920Y-7947341D02*
X13337920Y-7909246D01*
X13337920Y-7909246D02*
X13347444Y-7861627D01*
X13347444Y-7861627D02*
X13356968Y-7833055D01*
X13356968Y-7833055D02*
X13366491Y-7814008D01*
X13366491Y-7814008D02*
X13385539Y-7785436D01*
X13385539Y-7785436D02*
X13395063Y-7775912D01*
X13509348Y-7804484D02*
X13528396Y-7804484D01*
X13528396Y-7804484D02*
X13547444Y-7814008D01*
X13547444Y-7814008D02*
X13556968Y-7823531D01*
X13556968Y-7823531D02*
X13566491Y-7842579D01*
X13566491Y-7842579D02*
X13576015Y-7880674D01*
X13576015Y-7880674D02*
X13576015Y-7928293D01*
X13576015Y-7928293D02*
X13566491Y-7966388D01*
X13566491Y-7966388D02*
X13556968Y-7985436D01*
X13556968Y-7985436D02*
X13547444Y-7994960D01*
X13547444Y-7994960D02*
X13528396Y-8004484D01*
X13528396Y-8004484D02*
X13509348Y-8004484D01*
X13509348Y-8004484D02*
X13490301Y-7994960D01*
X13490301Y-7994960D02*
X13480777Y-7985436D01*
X13480777Y-7985436D02*
X13471253Y-7966388D01*
X13471253Y-7966388D02*
X13461729Y-7928293D01*
X13461729Y-7928293D02*
X13461729Y-7880674D01*
X13461729Y-7880674D02*
X13471253Y-7842579D01*
X13471253Y-7842579D02*
X13480777Y-7823531D01*
X13480777Y-7823531D02*
X13490301Y-7814008D01*
X13490301Y-7814008D02*
X13509348Y-7804484D01*
X13814110Y-8004484D02*
X13814110Y-7804484D01*
X13899825Y-8004484D02*
X13899825Y-7899722D01*
X13899825Y-7899722D02*
X13890301Y-7880674D01*
X13890301Y-7880674D02*
X13871253Y-7871150D01*
X13871253Y-7871150D02*
X13842682Y-7871150D01*
X13842682Y-7871150D02*
X13823634Y-7880674D01*
X13823634Y-7880674D02*
X13814110Y-7890198D01*
X14023634Y-8004484D02*
X14004587Y-7994960D01*
X14004587Y-7994960D02*
X13995063Y-7985436D01*
X13995063Y-7985436D02*
X13985539Y-7966388D01*
X13985539Y-7966388D02*
X13985539Y-7909246D01*
X13985539Y-7909246D02*
X13995063Y-7890198D01*
X13995063Y-7890198D02*
X14004587Y-7880674D01*
X14004587Y-7880674D02*
X14023634Y-7871150D01*
X14023634Y-7871150D02*
X14052206Y-7871150D01*
X14052206Y-7871150D02*
X14071253Y-7880674D01*
X14071253Y-7880674D02*
X14080777Y-7890198D01*
X14080777Y-7890198D02*
X14090301Y-7909246D01*
X14090301Y-7909246D02*
X14090301Y-7966388D01*
X14090301Y-7966388D02*
X14080777Y-7985436D01*
X14080777Y-7985436D02*
X14071253Y-7994960D01*
X14071253Y-7994960D02*
X14052206Y-8004484D01*
X14052206Y-8004484D02*
X14023634Y-8004484D01*
X14204587Y-8004484D02*
X14185539Y-7994960D01*
X14185539Y-7994960D02*
X14176015Y-7975912D01*
X14176015Y-7975912D02*
X14176015Y-7804484D01*
X14356968Y-7994960D02*
X14337920Y-8004484D01*
X14337920Y-8004484D02*
X14299825Y-8004484D01*
X14299825Y-8004484D02*
X14280777Y-7994960D01*
X14280777Y-7994960D02*
X14271253Y-7975912D01*
X14271253Y-7975912D02*
X14271253Y-7899722D01*
X14271253Y-7899722D02*
X14280777Y-7880674D01*
X14280777Y-7880674D02*
X14299825Y-7871150D01*
X14299825Y-7871150D02*
X14337920Y-7871150D01*
X14337920Y-7871150D02*
X14356968Y-7880674D01*
X14356968Y-7880674D02*
X14366491Y-7899722D01*
X14366491Y-7899722D02*
X14366491Y-7918769D01*
X14366491Y-7918769D02*
X14271253Y-7937817D01*
X14442682Y-7994960D02*
X14461730Y-8004484D01*
X14461730Y-8004484D02*
X14499825Y-8004484D01*
X14499825Y-8004484D02*
X14518872Y-7994960D01*
X14518872Y-7994960D02*
X14528396Y-7975912D01*
X14528396Y-7975912D02*
X14528396Y-7966388D01*
X14528396Y-7966388D02*
X14518872Y-7947341D01*
X14518872Y-7947341D02*
X14499825Y-7937817D01*
X14499825Y-7937817D02*
X14471253Y-7937817D01*
X14471253Y-7937817D02*
X14452206Y-7928293D01*
X14452206Y-7928293D02*
X14442682Y-7909246D01*
X14442682Y-7909246D02*
X14442682Y-7899722D01*
X14442682Y-7899722D02*
X14452206Y-7880674D01*
X14452206Y-7880674D02*
X14471253Y-7871150D01*
X14471253Y-7871150D02*
X14499825Y-7871150D01*
X14499825Y-7871150D02*
X14518872Y-7880674D01*
X14766492Y-7928293D02*
X14918873Y-7928293D01*
X14842682Y-8004484D02*
X14842682Y-7852103D01*
X15252206Y-7871150D02*
X15252206Y-8004484D01*
X15204587Y-7794960D02*
X15156968Y-7937817D01*
X15156968Y-7937817D02*
X15280777Y-7937817D01*
X15499825Y-7994960D02*
X15518873Y-8004484D01*
X15518873Y-8004484D02*
X15556968Y-8004484D01*
X15556968Y-8004484D02*
X15576015Y-7994960D01*
X15576015Y-7994960D02*
X15585539Y-7975912D01*
X15585539Y-7975912D02*
X15585539Y-7966388D01*
X15585539Y-7966388D02*
X15576015Y-7947341D01*
X15576015Y-7947341D02*
X15556968Y-7937817D01*
X15556968Y-7937817D02*
X15528396Y-7937817D01*
X15528396Y-7937817D02*
X15509349Y-7928293D01*
X15509349Y-7928293D02*
X15499825Y-7909246D01*
X15499825Y-7909246D02*
X15499825Y-7899722D01*
X15499825Y-7899722D02*
X15509349Y-7880674D01*
X15509349Y-7880674D02*
X15528396Y-7871150D01*
X15528396Y-7871150D02*
X15556968Y-7871150D01*
X15556968Y-7871150D02*
X15576015Y-7880674D01*
X15699825Y-8004484D02*
X15680777Y-7994960D01*
X15680777Y-7994960D02*
X15671254Y-7975912D01*
X15671254Y-7975912D02*
X15671254Y-7804484D01*
X15804587Y-8004484D02*
X15785539Y-7994960D01*
X15785539Y-7994960D02*
X15776015Y-7985436D01*
X15776015Y-7985436D02*
X15766492Y-7966388D01*
X15766492Y-7966388D02*
X15766492Y-7909246D01*
X15766492Y-7909246D02*
X15776015Y-7890198D01*
X15776015Y-7890198D02*
X15785539Y-7880674D01*
X15785539Y-7880674D02*
X15804587Y-7871150D01*
X15804587Y-7871150D02*
X15833158Y-7871150D01*
X15833158Y-7871150D02*
X15852206Y-7880674D01*
X15852206Y-7880674D02*
X15861730Y-7890198D01*
X15861730Y-7890198D02*
X15871254Y-7909246D01*
X15871254Y-7909246D02*
X15871254Y-7966388D01*
X15871254Y-7966388D02*
X15861730Y-7985436D01*
X15861730Y-7985436D02*
X15852206Y-7994960D01*
X15852206Y-7994960D02*
X15833158Y-8004484D01*
X15833158Y-8004484D02*
X15804587Y-8004484D01*
X15928396Y-7871150D02*
X16004587Y-7871150D01*
X15956968Y-7804484D02*
X15956968Y-7975912D01*
X15956968Y-7975912D02*
X15966492Y-7994960D01*
X15966492Y-7994960D02*
X15985539Y-8004484D01*
X15985539Y-8004484D02*
X16004587Y-8004484D01*
X16061730Y-7994960D02*
X16080777Y-8004484D01*
X16080777Y-8004484D02*
X16118873Y-8004484D01*
X16118873Y-8004484D02*
X16137920Y-7994960D01*
X16137920Y-7994960D02*
X16147444Y-7975912D01*
X16147444Y-7975912D02*
X16147444Y-7966388D01*
X16147444Y-7966388D02*
X16137920Y-7947341D01*
X16137920Y-7947341D02*
X16118873Y-7937817D01*
X16118873Y-7937817D02*
X16090301Y-7937817D01*
X16090301Y-7937817D02*
X16071254Y-7928293D01*
X16071254Y-7928293D02*
X16061730Y-7909246D01*
X16061730Y-7909246D02*
X16061730Y-7899722D01*
X16061730Y-7899722D02*
X16071254Y-7880674D01*
X16071254Y-7880674D02*
X16090301Y-7871150D01*
X16090301Y-7871150D02*
X16118873Y-7871150D01*
X16118873Y-7871150D02*
X16137920Y-7880674D01*
X16214111Y-8080674D02*
X16223635Y-8071150D01*
X16223635Y-8071150D02*
X16242682Y-8042579D01*
X16242682Y-8042579D02*
X16252206Y-8023531D01*
X16252206Y-8023531D02*
X16261730Y-7994960D01*
X16261730Y-7994960D02*
X16271254Y-7947341D01*
X16271254Y-7947341D02*
X16271254Y-7909246D01*
X16271254Y-7909246D02*
X16261730Y-7861627D01*
X16261730Y-7861627D02*
X16252206Y-7833055D01*
X16252206Y-7833055D02*
X16242682Y-7814008D01*
X16242682Y-7814008D02*
X16223635Y-7785436D01*
X16223635Y-7785436D02*
X16214111Y-7775912D01*
M02*
