G04 #@! TF.GenerationSoftware,KiCad,Pcbnew,7.0.6-7.0.6~ubuntu23.04.1*
G04 #@! TF.CreationDate,2023-07-23T13:36:01+02:00*
G04 #@! TF.ProjectId,CoralWave,436f7261-6c57-4617-9665-2e6b69636164,rev?*
G04 #@! TF.SameCoordinates,Original*
G04 #@! TF.FileFunction,Copper,L1,Top*
G04 #@! TF.FilePolarity,Positive*
%FSLAX46Y46*%
G04 Gerber Fmt 4.6, Leading zero omitted, Abs format (unit mm)*
G04 Created by KiCad (PCBNEW 7.0.6-7.0.6~ubuntu23.04.1) date 2023-07-23 13:36:01*
%MOMM*%
%LPD*%
G01*
G04 APERTURE LIST*
G04 #@! TA.AperFunction,SMDPad,CuDef*
%ADD10R,1.100000X3.700000*%
G04 #@! TD*
G04 #@! TA.AperFunction,SMDPad,CuDef*
%ADD11R,0.600000X1.030000*%
G04 #@! TD*
G04 #@! TA.AperFunction,SMDPad,CuDef*
%ADD12R,0.600000X1.080000*%
G04 #@! TD*
G04 #@! TA.AperFunction,SMDPad,CuDef*
%ADD13R,0.300000X1.150000*%
G04 #@! TD*
G04 #@! TA.AperFunction,ComponentPad*
%ADD14O,1.050000X2.100000*%
G04 #@! TD*
G04 #@! TA.AperFunction,ComponentPad*
%ADD15O,1.000000X2.000000*%
G04 #@! TD*
G04 #@! TA.AperFunction,SMDPad,CuDef*
%ADD16R,0.947699X0.254800*%
G04 #@! TD*
G04 #@! TA.AperFunction,SMDPad,CuDef*
%ADD17R,0.254800X0.947699*%
G04 #@! TD*
G04 #@! TA.AperFunction,SMDPad,CuDef*
%ADD18R,0.650000X0.720000*%
G04 #@! TD*
G04 #@! TA.AperFunction,SMDPad,CuDef*
%ADD19R,0.720000X0.650000*%
G04 #@! TD*
G04 #@! TA.AperFunction,SMDPad,CuDef*
%ADD20R,0.900000X1.500000*%
G04 #@! TD*
G04 #@! TA.AperFunction,SMDPad,CuDef*
%ADD21R,0.700000X0.700000*%
G04 #@! TD*
G04 #@! TA.AperFunction,SMDPad,CuDef*
%ADD22R,5.080000X2.290000*%
G04 #@! TD*
G04 #@! TA.AperFunction,SMDPad,CuDef*
%ADD23R,5.080000X2.415000*%
G04 #@! TD*
G04 #@! TA.AperFunction,SMDPad,CuDef*
%ADD24R,0.600000X0.750000*%
G04 #@! TD*
G04 #@! TA.AperFunction,SMDPad,CuDef*
%ADD25R,1.400000X1.200000*%
G04 #@! TD*
G04 #@! TA.AperFunction,SMDPad,CuDef*
%ADD26R,0.600000X0.620000*%
G04 #@! TD*
G04 #@! TA.AperFunction,SMDPad,CuDef*
%ADD27R,0.620000X0.600000*%
G04 #@! TD*
G04 #@! TA.AperFunction,SMDPad,CuDef*
%ADD28R,0.900000X0.950000*%
G04 #@! TD*
G04 #@! TA.AperFunction,SMDPad,CuDef*
%ADD29R,0.750000X0.600000*%
G04 #@! TD*
G04 #@! TA.AperFunction,SMDPad,CuDef*
%ADD30R,0.750000X0.940000*%
G04 #@! TD*
G04 #@! TA.AperFunction,SMDPad,CuDef*
%ADD31R,0.350000X0.650000*%
G04 #@! TD*
G04 #@! TA.AperFunction,SMDPad,CuDef*
%ADD32R,1.219200X0.914400*%
G04 #@! TD*
G04 #@! TA.AperFunction,SMDPad,CuDef*
%ADD33R,0.430000X0.320000*%
G04 #@! TD*
G04 #@! TA.AperFunction,SMDPad,CuDef*
%ADD34R,0.320000X0.430000*%
G04 #@! TD*
G04 #@! TA.AperFunction,SMDPad,CuDef*
%ADD35R,0.600000X0.700000*%
G04 #@! TD*
G04 #@! TA.AperFunction,SMDPad,CuDef*
%ADD36R,1.200000X0.600000*%
G04 #@! TD*
G04 #@! TA.AperFunction,ViaPad*
%ADD37C,0.600000*%
G04 #@! TD*
G04 #@! TA.AperFunction,Conductor*
%ADD38C,0.127000*%
G04 #@! TD*
G04 APERTURE END LIST*
D10*
X123790000Y-59520000D03*
X126790000Y-59520000D03*
D11*
X126470000Y-55515000D03*
D12*
X125670000Y-55490000D03*
D13*
X124520000Y-55455000D03*
X123520000Y-55455000D03*
X123020000Y-55455000D03*
X122020000Y-55455000D03*
D11*
X120070000Y-55515000D03*
D12*
X120870000Y-55490000D03*
D13*
X121520000Y-55455000D03*
X122520000Y-55455000D03*
X124020000Y-55455000D03*
X125020000Y-55455000D03*
D14*
X127590000Y-54880000D03*
D15*
X127590000Y-50700000D03*
X118950000Y-50700000D03*
D14*
X118950000Y-54880000D03*
D16*
X131936350Y-57419999D03*
X131936350Y-57920001D03*
X131936350Y-58420000D03*
X131936350Y-58919999D03*
X131936350Y-59420001D03*
D17*
X132832599Y-60316250D03*
X133332601Y-60316250D03*
X133832600Y-60316250D03*
X134332599Y-60316250D03*
X134832601Y-60316250D03*
D16*
X135728850Y-59420001D03*
X135728850Y-58919999D03*
X135728850Y-58420000D03*
X135728850Y-57920001D03*
X135728850Y-57419999D03*
D17*
X134832601Y-56523750D03*
X134332599Y-56523750D03*
X133832600Y-56523750D03*
X133332601Y-56523750D03*
X132832599Y-56523750D03*
D18*
X133027600Y-58420000D03*
D19*
X133832600Y-57615000D03*
X133832600Y-59225000D03*
D18*
X134637600Y-58420000D03*
D20*
X99630000Y-67800000D03*
X101130000Y-67800000D03*
X102630000Y-67800000D03*
X104130000Y-67800000D03*
X105630000Y-67800000D03*
X107130000Y-67800000D03*
X108630000Y-67800000D03*
X110130000Y-67800000D03*
X111630000Y-67800000D03*
X111630000Y-50300000D03*
X110130000Y-50300000D03*
X108630000Y-50300000D03*
X107130000Y-50300000D03*
X105630000Y-50300000D03*
X104130000Y-50300000D03*
X102630000Y-50300000D03*
X101130000Y-50300000D03*
X99630000Y-50300000D03*
D21*
X105830000Y-58090000D03*
X105830000Y-56990000D03*
X104730000Y-56990000D03*
X104730000Y-58090000D03*
X104730000Y-59190000D03*
X105830000Y-59190000D03*
X106930000Y-59190000D03*
X106930000Y-58090000D03*
X106930000Y-56990000D03*
D22*
X149100000Y-59050000D03*
D23*
X149100000Y-54667500D03*
X149100000Y-63432500D03*
D24*
X114570000Y-56000000D03*
X114570000Y-57100000D03*
D25*
X132600000Y-65460000D03*
X134800000Y-65460000D03*
X134800000Y-63860000D03*
X132600000Y-63860000D03*
D26*
X115690000Y-67600000D03*
X114770000Y-67600000D03*
D27*
X130340000Y-65460000D03*
X130340000Y-66380000D03*
D26*
X144390000Y-58340000D03*
X145310000Y-58340000D03*
D28*
X117400000Y-64830000D03*
X119000000Y-64830000D03*
D27*
X129010000Y-64140000D03*
X129010000Y-63220000D03*
X139530000Y-61380000D03*
X139530000Y-60460000D03*
X135730000Y-53430000D03*
X135730000Y-54350000D03*
D29*
X114530000Y-63000000D03*
X115630000Y-63000000D03*
D30*
X119150000Y-63340000D03*
X117750000Y-63340000D03*
D28*
X119000000Y-66440000D03*
X117400000Y-66440000D03*
D27*
X130500000Y-59420000D03*
X130500000Y-60340000D03*
D31*
X142285000Y-58340000D03*
X143135000Y-58340000D03*
D27*
X127910000Y-64140000D03*
X127910000Y-63220000D03*
D32*
X120860000Y-61638300D03*
X120860000Y-58361700D03*
D29*
X114530000Y-65400000D03*
X115630000Y-65400000D03*
D27*
X137090000Y-63860000D03*
X137090000Y-64780000D03*
D26*
X132730000Y-55220000D03*
X133650000Y-55220000D03*
D33*
X120870000Y-56860000D03*
X119770000Y-56860000D03*
D34*
X117330000Y-50930000D03*
X117330000Y-52030000D03*
D26*
X114770000Y-68800000D03*
X115690000Y-68800000D03*
D35*
X134350000Y-52990000D03*
X134350000Y-54090000D03*
D24*
X117280000Y-55060000D03*
X117280000Y-56160000D03*
D34*
X117340000Y-53970000D03*
X117340000Y-52870000D03*
D31*
X138265000Y-60460000D03*
X137415000Y-60460000D03*
D26*
X129270000Y-58440000D03*
X130190000Y-58440000D03*
D27*
X126810000Y-64140000D03*
X126810000Y-63220000D03*
D26*
X137420000Y-59400000D03*
X138340000Y-59400000D03*
X137380000Y-61530000D03*
X138300000Y-61530000D03*
D24*
X129040000Y-52550000D03*
X129040000Y-51450000D03*
D27*
X137490000Y-56360000D03*
X137490000Y-57280000D03*
X142280000Y-60320000D03*
X142280000Y-59400000D03*
D26*
X114520000Y-64200000D03*
X115440000Y-64200000D03*
D27*
X144390000Y-60220000D03*
X144390000Y-59300000D03*
D26*
X135220000Y-61670000D03*
X134300000Y-61670000D03*
D31*
X137485000Y-58340000D03*
X138335000Y-58340000D03*
X139885000Y-58340000D03*
X140735000Y-58340000D03*
D36*
X123200000Y-65460000D03*
X123200000Y-64510000D03*
X123200000Y-63560000D03*
X120700000Y-63560000D03*
X120700000Y-65460000D03*
D27*
X136830000Y-53430000D03*
X136830000Y-54350000D03*
D37*
X107480000Y-56440000D03*
X107480000Y-59740000D03*
X104180000Y-59740000D03*
X104170000Y-56440000D03*
X105280000Y-56440000D03*
X106380000Y-56440000D03*
X107470000Y-57540000D03*
X107470000Y-58640000D03*
X106380000Y-59740000D03*
X105280000Y-59740000D03*
X104170000Y-58640000D03*
X104170000Y-57540000D03*
X145410000Y-54670000D03*
X145390000Y-63430000D03*
X133030000Y-57610000D03*
X134640000Y-57620000D03*
X134640000Y-59230000D03*
X133030000Y-59230000D03*
X133830000Y-58430000D03*
X117290000Y-50210000D03*
X145390000Y-60220000D03*
X106380000Y-57540000D03*
X125810000Y-64150000D03*
X117750000Y-62270000D03*
X137910000Y-64780000D03*
X133530000Y-52990000D03*
X129280000Y-60330000D03*
X116620000Y-53970000D03*
X136830000Y-52620000D03*
X138300000Y-62360000D03*
X130020000Y-51420000D03*
X113960000Y-68800000D03*
X131920000Y-55220000D03*
X116240000Y-64200000D03*
X139530000Y-62260000D03*
X105290000Y-58640000D03*
X143290000Y-60320000D03*
X135730000Y-52620000D03*
X129270000Y-59450000D03*
X138330000Y-56360000D03*
X106380000Y-58640000D03*
X133437641Y-62087000D03*
X124560000Y-63940000D03*
X128990000Y-53730000D03*
X111630000Y-66290000D03*
X129520000Y-66380000D03*
X134882101Y-55310000D03*
X105280000Y-57540000D03*
X117400000Y-67430000D03*
X117280000Y-57010000D03*
X129273102Y-55693102D03*
X108430000Y-65963000D03*
X129198562Y-57224204D03*
X108993000Y-65316000D03*
X128260000Y-58109602D03*
X109570000Y-64753000D03*
X133490000Y-51780000D03*
X131063500Y-62650000D03*
X132190000Y-62650000D03*
X129850000Y-57690000D03*
X135437000Y-62650000D03*
X136730000Y-62650000D03*
X132045000Y-53225000D03*
X107830000Y-66526000D03*
X129280000Y-54780000D03*
X112630000Y-51600000D03*
X125568571Y-57255445D03*
X126492000Y-56660000D03*
X114570000Y-58089000D03*
D38*
X129010000Y-64140000D02*
X126680000Y-66470000D01*
X126680000Y-66470000D02*
X122010000Y-66470000D01*
X121000000Y-65460000D02*
X120700000Y-65460000D01*
X122010000Y-66470000D02*
X121000000Y-65460000D01*
X123790000Y-59520000D02*
X123790000Y-62230000D01*
X123790000Y-62230000D02*
X123200000Y-62820000D01*
X123200000Y-62820000D02*
X123200000Y-63560000D01*
X109130000Y-57100000D02*
X114570000Y-57100000D01*
X102630000Y-50600000D02*
X109130000Y-57100000D01*
X102630000Y-50300000D02*
X102630000Y-50600000D01*
X106930000Y-56990000D02*
X107480000Y-56440000D01*
X106930000Y-59190000D02*
X107480000Y-59740000D01*
X104730000Y-59190000D02*
X104180000Y-59740000D01*
X104720000Y-56990000D02*
X104170000Y-56440000D01*
X104730000Y-56990000D02*
X105280000Y-56440000D01*
X105830000Y-56990000D02*
X105280000Y-56440000D01*
X105830000Y-56990000D02*
X106380000Y-56440000D01*
X106930000Y-56990000D02*
X106380000Y-56440000D01*
X106930000Y-56990000D02*
X106930000Y-57000000D01*
X106930000Y-57000000D02*
X107470000Y-57540000D01*
X106930000Y-58080000D02*
X107470000Y-57540000D01*
X106930000Y-58090000D02*
X106930000Y-58080000D01*
X106930000Y-58090000D02*
X106930000Y-58100000D01*
X106930000Y-58100000D02*
X107470000Y-58640000D01*
X106930000Y-59180000D02*
X107470000Y-58640000D01*
X106930000Y-59190000D02*
X106930000Y-59180000D01*
X106930000Y-59190000D02*
X106380000Y-59740000D01*
X105830000Y-59190000D02*
X106380000Y-59740000D01*
X105830000Y-59190000D02*
X105280000Y-59740000D01*
X104730000Y-59190000D02*
X105280000Y-59740000D01*
X104730000Y-59190000D02*
X104720000Y-59190000D01*
X104720000Y-59190000D02*
X104170000Y-58640000D01*
X104720000Y-58090000D02*
X104170000Y-58640000D01*
X104730000Y-58090000D02*
X104720000Y-58090000D01*
X104720000Y-58090000D02*
X104170000Y-57540000D01*
X104720000Y-56990000D02*
X104170000Y-57540000D01*
X104730000Y-56990000D02*
X104720000Y-56990000D01*
X115630000Y-65400000D02*
X115690000Y-65400000D01*
X115690000Y-65400000D02*
X116350000Y-66060000D01*
X115630000Y-65400000D02*
X116830000Y-65400000D01*
X99630000Y-67800000D02*
X99630000Y-68100000D01*
X115477000Y-66950000D02*
X115690000Y-67163000D01*
X99630000Y-68100000D02*
X100470000Y-68940000D01*
X100470000Y-68940000D02*
X112320000Y-68940000D01*
X112320000Y-68940000D02*
X114310000Y-66950000D01*
X114310000Y-66950000D02*
X115477000Y-66950000D01*
X115690000Y-67163000D02*
X115690000Y-67600000D01*
X114770000Y-67600000D02*
X114770000Y-68800000D01*
X113960000Y-68800000D02*
X114770000Y-68800000D01*
X116350000Y-66060000D02*
X116350000Y-66940000D01*
X116350000Y-66940000D02*
X115690000Y-67600000D01*
X115690000Y-68800000D02*
X115690000Y-67600000D01*
X115690000Y-68800000D02*
X125360000Y-68800000D01*
X145412500Y-54667500D02*
X145410000Y-54670000D01*
X149100000Y-54667500D02*
X145412500Y-54667500D01*
X145392500Y-63432500D02*
X145390000Y-63430000D01*
X149100000Y-63432500D02*
X145392500Y-63432500D01*
X149100000Y-59050000D02*
X146020000Y-59050000D01*
X146020000Y-59050000D02*
X145310000Y-58340000D01*
X133027600Y-58420000D02*
X133027600Y-57612400D01*
X133027600Y-57612400D02*
X133030000Y-57610000D01*
X133035000Y-57615000D02*
X133030000Y-57610000D01*
X133832600Y-57615000D02*
X133035000Y-57615000D01*
X134637600Y-58420000D02*
X134637600Y-57622400D01*
X134637600Y-57622400D02*
X134640000Y-57620000D01*
X134635000Y-57615000D02*
X134640000Y-57620000D01*
X133832600Y-57615000D02*
X134635000Y-57615000D01*
X133832600Y-59225000D02*
X134635000Y-59225000D01*
X134635000Y-59225000D02*
X134640000Y-59230000D01*
X134637600Y-59227600D02*
X134640000Y-59230000D01*
X134637600Y-58420000D02*
X134637600Y-59227600D01*
X133832600Y-59225000D02*
X133035000Y-59225000D01*
X133035000Y-59225000D02*
X133030000Y-59230000D01*
X133027600Y-59227600D02*
X133030000Y-59230000D01*
X133027600Y-58420000D02*
X133027600Y-59227600D01*
X134637600Y-58420000D02*
X133840000Y-58420000D01*
X133840000Y-58420000D02*
X133830000Y-58430000D01*
X133027600Y-58420000D02*
X133820000Y-58420000D01*
X133820000Y-58420000D02*
X133830000Y-58430000D01*
X133832600Y-59225000D02*
X133832600Y-58432600D01*
X133832600Y-58432600D02*
X133830000Y-58430000D01*
X133832600Y-58427400D02*
X133830000Y-58430000D01*
X133832600Y-57615000D02*
X133832600Y-58427400D01*
X126492000Y-56660000D02*
X126493204Y-56661204D01*
X126493204Y-56661204D02*
X130311204Y-56661204D01*
X130311204Y-56661204D02*
X131199001Y-57549001D01*
X131199001Y-57549001D02*
X131199001Y-57810899D01*
X131199001Y-57810899D02*
X131308103Y-57920001D01*
X131308103Y-57920001D02*
X131936350Y-57920001D01*
X120870000Y-56860000D02*
X124858500Y-56860000D01*
X124858500Y-56860000D02*
X125670000Y-56048500D01*
X125670000Y-56048500D02*
X125670000Y-55455000D01*
X114570000Y-56000000D02*
X114997000Y-56000000D01*
X114997000Y-56000000D02*
X115630000Y-56633000D01*
X115630000Y-56633000D02*
X115630000Y-63000000D01*
X114570000Y-58089000D02*
X114570000Y-57100000D01*
X131936350Y-59420001D02*
X130500000Y-59420000D01*
X129270000Y-58440000D02*
X129270000Y-59450000D01*
X127590000Y-54880000D02*
X127840000Y-54880000D01*
X127590000Y-54880000D02*
X127015000Y-55455000D01*
X120070000Y-56560000D02*
X119770000Y-56860000D01*
X144390000Y-60220000D02*
X145390000Y-60220000D01*
X125810000Y-64150000D02*
X125820000Y-64140000D01*
X106380000Y-58640000D02*
X105830000Y-58090000D01*
X118950000Y-50700000D02*
X117890000Y-50700000D01*
X135730000Y-53430000D02*
X135730000Y-52620000D01*
X118950000Y-54880000D02*
X119525000Y-55455000D01*
X111630000Y-67800000D02*
X111630000Y-66290000D01*
X130340000Y-66380000D02*
X129520000Y-66380000D01*
X132730000Y-55320300D02*
X132730000Y-55220000D01*
X125820000Y-64140000D02*
X126810000Y-64140000D01*
X134350000Y-52990000D02*
X133530000Y-52990000D01*
X105290000Y-58640000D02*
X105280000Y-58640000D01*
X105280000Y-58640000D02*
X104730000Y-58090000D01*
X127840000Y-54880000D02*
X128990000Y-53730000D01*
X129040000Y-51450000D02*
X129990000Y-51450000D01*
X134882101Y-55310000D02*
X134832601Y-55359500D01*
X104730000Y-59190000D02*
X104740000Y-59190000D01*
X105830000Y-59190000D02*
X106380000Y-58640000D01*
X117330000Y-50930000D02*
X117660000Y-50930000D01*
X120070000Y-55515000D02*
X120070000Y-56560000D01*
X106380000Y-58640000D02*
X106930000Y-59190000D01*
X133332601Y-55922901D02*
X132730000Y-55320300D01*
X104730000Y-56990000D02*
X105280000Y-57540000D01*
X133854641Y-61670000D02*
X133437641Y-62087000D01*
X133332601Y-56523750D02*
X133332601Y-55922901D01*
X104740000Y-59190000D02*
X105290000Y-58640000D01*
X117750000Y-63340000D02*
X117750000Y-62270000D01*
X134300000Y-61670000D02*
X133854641Y-61670000D01*
X132730000Y-55220000D02*
X131920000Y-55220000D01*
X119770000Y-56860000D02*
X117980000Y-56860000D01*
X137490000Y-56360000D02*
X138330000Y-56360000D01*
X117980000Y-56860000D02*
X117280000Y-56160000D01*
X105290000Y-58640000D02*
X105290000Y-58630000D01*
X127015000Y-55455000D02*
X126470000Y-55455000D01*
X117330000Y-50930000D02*
X117330000Y-50250000D01*
X117890000Y-50700000D02*
X117660000Y-50930000D01*
X105280000Y-57540000D02*
X105830000Y-56990000D01*
X105280000Y-57540000D02*
X105830000Y-58090000D01*
X117280000Y-56160000D02*
X117280000Y-57010000D01*
X105290000Y-58640000D02*
X105290000Y-58650000D01*
X117400000Y-66440000D02*
X117400000Y-67430000D01*
X119525000Y-55455000D02*
X120070000Y-55455000D01*
X129990000Y-51450000D02*
X130020000Y-51420000D01*
X117330000Y-50250000D02*
X117290000Y-50210000D01*
X106380000Y-57540000D02*
X106930000Y-56990000D01*
X106380000Y-57540000D02*
X105830000Y-56990000D01*
X136830000Y-53430000D02*
X136830000Y-52620000D01*
X104730000Y-58090000D02*
X105280000Y-57540000D01*
X128290000Y-50700000D02*
X129040000Y-51450000D01*
X130500000Y-60340000D02*
X129290000Y-60340000D01*
X117340000Y-53970000D02*
X116620000Y-53970000D01*
X106380000Y-58640000D02*
X106930000Y-58090000D01*
X105830000Y-58090000D02*
X106380000Y-57540000D01*
X138300000Y-61530000D02*
X138300000Y-62360000D01*
X134832601Y-55359500D02*
X134832601Y-56523750D01*
X105290000Y-58650000D02*
X105830000Y-59190000D01*
X115440000Y-64200000D02*
X116240000Y-64200000D01*
X129290000Y-60340000D02*
X129280000Y-60330000D01*
X123200000Y-64510000D02*
X123990000Y-64510000D01*
X127910000Y-64140000D02*
X126810000Y-64140000D01*
X105290000Y-58630000D02*
X105830000Y-58090000D01*
X142280000Y-60320000D02*
X143290000Y-60320000D01*
X106380000Y-57540000D02*
X106930000Y-58090000D01*
X123990000Y-64510000D02*
X124560000Y-63940000D01*
X127590000Y-50700000D02*
X128290000Y-50700000D01*
X139530000Y-62260000D02*
X139530000Y-61380000D01*
X137090000Y-64780000D02*
X137910000Y-64780000D01*
X131626500Y-61933500D02*
X131626500Y-64173500D01*
X132160000Y-61400000D02*
X131626500Y-61933500D01*
X133832600Y-60944500D02*
X133377100Y-61400000D01*
X131626500Y-64173500D02*
X130340000Y-65460000D01*
X130340000Y-65460000D02*
X132600000Y-65460000D01*
X133377100Y-61400000D02*
X132160000Y-61400000D01*
X133832600Y-60316250D02*
X133832600Y-60944500D01*
X136080000Y-61300000D02*
X135096250Y-60316250D01*
X137090000Y-63860000D02*
X136080000Y-62850000D01*
X136080000Y-62850000D02*
X136080000Y-61300000D01*
X135096250Y-60316250D02*
X134832601Y-60316250D01*
X137090000Y-63860000D02*
X134800000Y-63860000D01*
X137405000Y-58420000D02*
X137485000Y-58340000D01*
X135728850Y-58420000D02*
X137405000Y-58420000D01*
X137490000Y-57280000D02*
X137490000Y-58335000D01*
X137490000Y-58335000D02*
X137485000Y-58340000D01*
X144390000Y-58340000D02*
X144390000Y-59300000D01*
X143135000Y-58340000D02*
X144390000Y-58340000D01*
X139530000Y-60460000D02*
X138265000Y-60460000D01*
X136939999Y-58919999D02*
X137420000Y-59400000D01*
X137420000Y-60455000D02*
X137415000Y-60460000D01*
X137420000Y-59400000D02*
X137420000Y-60455000D01*
X135728850Y-58919999D02*
X136939999Y-58919999D01*
X138335000Y-58340000D02*
X138335000Y-59395000D01*
X138335000Y-58340000D02*
X139885000Y-58340000D01*
X138335000Y-59395000D02*
X138340000Y-59400000D01*
X140735000Y-58340000D02*
X142285000Y-58340000D01*
X142285000Y-58340000D02*
X142285000Y-59395000D01*
X142285000Y-59395000D02*
X142280000Y-59400000D01*
X134318601Y-56509752D02*
X134332599Y-56523750D01*
X134318601Y-54111399D02*
X134318601Y-56509752D01*
X105630000Y-67500000D02*
X107167000Y-65963000D01*
X107167000Y-65963000D02*
X108430000Y-65963000D01*
X130209453Y-55693102D02*
X131936350Y-57419999D01*
X105630000Y-67800000D02*
X105630000Y-67500000D01*
X129273102Y-55693102D02*
X130209453Y-55693102D01*
X130583776Y-57620776D02*
X130583776Y-57695676D01*
X104130000Y-67500000D02*
X104130000Y-67800000D01*
X130583776Y-57695676D02*
X131308100Y-58420000D01*
X106230000Y-65400000D02*
X104130000Y-67500000D01*
X130089500Y-57126500D02*
X130583776Y-57620776D01*
X108909000Y-65400000D02*
X106230000Y-65400000D01*
X108993000Y-65316000D02*
X108909000Y-65400000D01*
X131308100Y-58420000D02*
X131936350Y-58420000D01*
X129198562Y-57224204D02*
X129296266Y-57126500D01*
X129296266Y-57126500D02*
X130089500Y-57126500D01*
X105450000Y-64753000D02*
X102630000Y-67573000D01*
X109570000Y-64753000D02*
X105450000Y-64753000D01*
X102630000Y-67573000D02*
X102630000Y-67800000D01*
X131593750Y-60316250D02*
X132832599Y-60316250D01*
X128260000Y-60106910D02*
X129123090Y-60970000D01*
X130940000Y-60970000D02*
X131593750Y-60316250D01*
X128260000Y-58109602D02*
X128260000Y-60106910D01*
X129123090Y-60970000D02*
X130940000Y-60970000D01*
X131936350Y-58919999D02*
X131345651Y-58919999D01*
X135067000Y-61080000D02*
X135220000Y-61233000D01*
X135728850Y-57920001D02*
X136349999Y-57920001D01*
X129447000Y-63220000D02*
X129680000Y-63453000D01*
X137403500Y-53880000D02*
X137403500Y-52396590D01*
X132425000Y-53225000D02*
X132045000Y-53225000D01*
X116172000Y-63000000D02*
X115630000Y-63000000D01*
X116830000Y-65400000D02*
X117400000Y-64830000D01*
X117400000Y-64830000D02*
X117400000Y-64228000D01*
X129010000Y-63220000D02*
X129447000Y-63220000D01*
X129680000Y-63453000D02*
X129680000Y-64480000D01*
X135728850Y-59420001D02*
X135728850Y-59878850D01*
X129850000Y-57690000D02*
X130190000Y-58030000D01*
X135437000Y-62650000D02*
X135220000Y-62433000D01*
X135060000Y-54117000D02*
X135060000Y-51780000D01*
X135060000Y-51780000D02*
X133490000Y-51780000D01*
X126790000Y-63200000D02*
X126810000Y-63220000D01*
X126810000Y-63220000D02*
X127910000Y-63220000D01*
X126790000Y-59520000D02*
X126790000Y-63200000D01*
X129580000Y-62650000D02*
X131063500Y-62650000D01*
X135220000Y-62433000D02*
X135220000Y-61670000D01*
X133832600Y-55402600D02*
X133650000Y-55220000D01*
X130190000Y-58030000D02*
X130190000Y-58440000D01*
X135728850Y-57419999D02*
X135728850Y-54351150D01*
X135293000Y-54350000D02*
X135730000Y-54350000D01*
X131345651Y-58919999D02*
X130865652Y-58440000D01*
X135220000Y-61233000D02*
X135220000Y-61670000D01*
X137403500Y-52396590D02*
X136786910Y-51780000D01*
X136830000Y-57440000D02*
X136830000Y-54350000D01*
X135728850Y-59878850D02*
X137380000Y-61530000D01*
X129680000Y-64480000D02*
X125360000Y-68800000D01*
X134540000Y-61080000D02*
X135067000Y-61080000D01*
X136730000Y-62650000D02*
X136730000Y-62180000D01*
X136933500Y-54350000D02*
X137403500Y-53880000D01*
X133650000Y-55220000D02*
X133650000Y-54450000D01*
X130865652Y-58440000D02*
X130190000Y-58440000D01*
X135728850Y-54351150D02*
X135730000Y-54350000D01*
X127910000Y-63220000D02*
X129010000Y-63220000D01*
X129010000Y-63220000D02*
X129580000Y-62650000D01*
X136830000Y-54350000D02*
X136933500Y-54350000D01*
X133650000Y-54450000D02*
X132425000Y-53225000D01*
X134332599Y-60872599D02*
X134540000Y-61080000D01*
X117400000Y-64228000D02*
X116172000Y-63000000D01*
X136730000Y-62180000D02*
X137380000Y-61530000D01*
X135437000Y-62650000D02*
X132190000Y-62650000D01*
X136786910Y-51780000D02*
X135060000Y-51780000D01*
X134332599Y-60316250D02*
X134332599Y-60872599D01*
X136349999Y-57920001D02*
X136830000Y-57440000D01*
X133832600Y-56523750D02*
X133832600Y-55402600D01*
X135293000Y-54350000D02*
X135060000Y-54117000D01*
X114530000Y-63000000D02*
X114530000Y-64190000D01*
X114520000Y-64200000D02*
X114510000Y-64190000D01*
X101130000Y-67500000D02*
X101130000Y-67800000D01*
X114530000Y-64190000D02*
X114520000Y-64200000D01*
X104440000Y-64190000D02*
X101130000Y-67500000D01*
X114510000Y-64190000D02*
X104440000Y-64190000D01*
X120700000Y-65460000D02*
X119630000Y-65460000D01*
X119630000Y-65460000D02*
X119000000Y-64830000D01*
X119000000Y-66440000D02*
X119000000Y-64830000D01*
X119370000Y-63560000D02*
X119150000Y-63340000D01*
X121950000Y-64130000D02*
X121380000Y-63560000D01*
X121950000Y-64937000D02*
X121950000Y-64130000D01*
X120860000Y-61638300D02*
X120860000Y-62730000D01*
X120700000Y-63560000D02*
X119370000Y-63560000D01*
X122473000Y-65460000D02*
X121950000Y-64937000D01*
X121380000Y-63560000D02*
X120700000Y-63560000D01*
X120860000Y-62730000D02*
X120870000Y-62740000D01*
X120700000Y-63560000D02*
X120700000Y-62910000D01*
X120700000Y-62910000D02*
X120870000Y-62740000D01*
X123200000Y-65460000D02*
X122473000Y-65460000D01*
X122520000Y-56207000D02*
X122520000Y-55455000D01*
X105630000Y-51580000D02*
X106677000Y-52627000D01*
X122520000Y-54703000D02*
X120687000Y-52870000D01*
X123520000Y-55455000D02*
X123520000Y-56207000D01*
X106677000Y-52627000D02*
X117097000Y-52627000D01*
X117097000Y-52627000D02*
X117340000Y-52870000D01*
X123520000Y-56207000D02*
X123433500Y-56293500D01*
X122606500Y-56293500D02*
X122520000Y-56207000D01*
X122520000Y-55455000D02*
X122520000Y-54703000D01*
X123433500Y-56293500D02*
X122606500Y-56293500D01*
X105630000Y-50300000D02*
X105630000Y-51580000D01*
X117340000Y-52870000D02*
X120687000Y-52870000D01*
X117330000Y-52030000D02*
X117060000Y-52300000D01*
X123106500Y-54616500D02*
X123933500Y-54616500D01*
X124020000Y-54703000D02*
X124020000Y-55455000D01*
X123933500Y-54616500D02*
X124020000Y-54703000D01*
X117330000Y-52030000D02*
X120485686Y-52030000D01*
X123020000Y-55455000D02*
X123020000Y-54564314D01*
X123020000Y-54703000D02*
X123106500Y-54616500D01*
X123020000Y-55455000D02*
X123020000Y-54703000D01*
X117060000Y-52300000D02*
X107900000Y-52300000D01*
X107900000Y-52300000D02*
X107130000Y-51530000D01*
X107130000Y-51530000D02*
X107130000Y-50300000D01*
X123020000Y-54564314D02*
X120485686Y-52030000D01*
X120870000Y-55490000D02*
X120870000Y-56860000D01*
X120870000Y-58351700D02*
X120860000Y-58361700D01*
X120870000Y-56860000D02*
X120870000Y-58351700D01*
X132426840Y-56523750D02*
X132832599Y-56523750D01*
X107130000Y-67800000D02*
X107130000Y-67139910D01*
X130683090Y-54780000D02*
X132426840Y-56523750D01*
X129280000Y-54780000D02*
X130683090Y-54780000D01*
X107743910Y-66526000D02*
X107830000Y-66526000D01*
X107130000Y-67139910D02*
X107743910Y-66526000D01*
X108630000Y-67573000D02*
X110803000Y-65400000D01*
X110803000Y-65400000D02*
X114530000Y-65400000D01*
X108630000Y-67800000D02*
X108630000Y-67573000D01*
X127603500Y-60220330D02*
X128680170Y-61297000D01*
X125568571Y-57255445D02*
X127481893Y-57255445D01*
X128680170Y-61297000D02*
X131075448Y-61297000D01*
X133332601Y-60944497D02*
X133332601Y-60316250D01*
X127603500Y-57377052D02*
X127603500Y-60220330D01*
X111630000Y-50600000D02*
X111630000Y-50300000D01*
X131299448Y-61073000D02*
X133204098Y-61073000D01*
X131075448Y-61297000D02*
X131299448Y-61073000D01*
X112630000Y-51600000D02*
X111630000Y-50600000D01*
X127481893Y-57255445D02*
X127603500Y-57377052D01*
X133204098Y-61073000D02*
X133332601Y-60944497D01*
X129040000Y-52550000D02*
X126673000Y-52550000D01*
X124520000Y-54703000D02*
X124520000Y-55455000D01*
X126673000Y-52550000D02*
X124520000Y-54703000D01*
X117280000Y-54909893D02*
X118659893Y-53530000D01*
X118659893Y-53530000D02*
X120580000Y-53530000D01*
X121520000Y-54470000D02*
X121520000Y-55455000D01*
X120580000Y-53530000D02*
X121520000Y-54470000D01*
X117280000Y-55060000D02*
X117280000Y-54909893D01*
M02*
