M48
; DRILL file {KiCad 7.0.6-7.0.6~ubuntu23.04.1} date So 23 Jul 2023 13:36:54
; FORMAT={-:-/ absolute / metric / decimal}
; #@! TF.CreationDate,2023-07-23T13:36:54+02:00
; #@! TF.GenerationSoftware,Kicad,Pcbnew,7.0.6-7.0.6~ubuntu23.04.1
; #@! TF.FileFunction,Plated,1,2,PTH
FMAT,2
METRIC
; #@! TA.AperFunction,Plated,PTH,ViaDrill
T1C0.300
; #@! TA.AperFunction,Plated,PTH,ComponentDrill
T2C0.600
%
G90
G05
T1
X104.17Y-56.44
X104.17Y-57.54
X104.17Y-58.64
X104.18Y-59.74
X105.28Y-56.44
X105.28Y-57.54
X105.28Y-59.74
X105.29Y-58.64
X106.38Y-56.44
X106.38Y-57.54
X106.38Y-58.64
X106.38Y-59.74
X107.47Y-57.54
X107.47Y-58.64
X107.48Y-56.44
X107.48Y-59.74
X107.83Y-66.526
X108.43Y-65.963
X108.993Y-65.316
X109.57Y-64.753
X111.63Y-66.29
X112.63Y-51.6
X113.96Y-68.8
X114.57Y-58.089
X116.24Y-64.2
X116.62Y-53.97
X117.28Y-57.01
X117.29Y-50.21
X117.4Y-67.43
X117.75Y-62.27
X124.56Y-63.94
X125.569Y-57.255
X125.81Y-64.15
X126.492Y-56.66
X128.26Y-58.11
X128.99Y-53.73
X129.199Y-57.224
X129.27Y-59.45
X129.273Y-55.693
X129.28Y-54.78
X129.28Y-60.33
X129.52Y-66.38
X129.85Y-57.69
X130.02Y-51.42
X131.064Y-62.65
X131.92Y-55.22
X132.045Y-53.225
X132.19Y-62.65
X133.03Y-57.61
X133.03Y-59.23
X133.438Y-62.087
X133.49Y-51.78
X133.53Y-52.99
X133.83Y-58.43
X134.64Y-57.62
X134.64Y-59.23
X134.882Y-55.31
X135.437Y-62.65
X135.73Y-52.62
X136.73Y-62.65
X136.83Y-52.62
X137.91Y-64.78
X138.3Y-62.36
X138.33Y-56.36
X139.53Y-62.26
X143.29Y-60.32
X145.39Y-60.22
X145.39Y-63.43
X145.41Y-54.67
T2
X118.95Y-51.1G85X118.95Y-50.3
G05
X118.95Y-55.43G85X118.95Y-54.33
G05
X127.59Y-51.1G85X127.59Y-50.3
G05
X127.59Y-55.43G85X127.59Y-54.33
G05
T0
M30
