G04 #@! TF.GenerationSoftware,KiCad,Pcbnew,7.0.7-7.0.7~ubuntu23.04.1*
G04 #@! TF.CreationDate,2023-08-22T21:33:39+02:00*
G04 #@! TF.ProjectId,CoralWave,436f7261-6c57-4617-9665-2e6b69636164,rev?*
G04 #@! TF.SameCoordinates,Original*
G04 #@! TF.FileFunction,Legend,Bot*
G04 #@! TF.FilePolarity,Positive*
%FSLAX46Y46*%
G04 Gerber Fmt 4.6, Leading zero omitted, Abs format (unit mm)*
G04 Created by KiCad (PCBNEW 7.0.7-7.0.7~ubuntu23.04.1) date 2023-08-22 21:33:39*
%MOMM*%
%LPD*%
G01*
G04 APERTURE LIST*
%ADD10C,0.153000*%
%ADD11R,5.080000X2.415000*%
%ADD12C,0.650000*%
%ADD13O,1.050000X2.100000*%
%ADD14O,1.000000X2.000000*%
G04 APERTURE END LIST*
D10*
X100139663Y-55890180D02*
X99663472Y-55556847D01*
X100139663Y-55318752D02*
X99139663Y-55318752D01*
X99139663Y-55318752D02*
X99139663Y-55699704D01*
X99139663Y-55699704D02*
X99187282Y-55794942D01*
X99187282Y-55794942D02*
X99234901Y-55842561D01*
X99234901Y-55842561D02*
X99330139Y-55890180D01*
X99330139Y-55890180D02*
X99472996Y-55890180D01*
X99472996Y-55890180D02*
X99568234Y-55842561D01*
X99568234Y-55842561D02*
X99615853Y-55794942D01*
X99615853Y-55794942D02*
X99663472Y-55699704D01*
X99663472Y-55699704D02*
X99663472Y-55318752D01*
X100092044Y-56699704D02*
X100139663Y-56604466D01*
X100139663Y-56604466D02*
X100139663Y-56413990D01*
X100139663Y-56413990D02*
X100092044Y-56318752D01*
X100092044Y-56318752D02*
X99996805Y-56271133D01*
X99996805Y-56271133D02*
X99615853Y-56271133D01*
X99615853Y-56271133D02*
X99520615Y-56318752D01*
X99520615Y-56318752D02*
X99472996Y-56413990D01*
X99472996Y-56413990D02*
X99472996Y-56604466D01*
X99472996Y-56604466D02*
X99520615Y-56699704D01*
X99520615Y-56699704D02*
X99615853Y-56747323D01*
X99615853Y-56747323D02*
X99711091Y-56747323D01*
X99711091Y-56747323D02*
X99806329Y-56271133D01*
X99472996Y-57080657D02*
X100139663Y-57318752D01*
X100139663Y-57318752D02*
X99472996Y-57556847D01*
X100044424Y-57937800D02*
X100092044Y-57985419D01*
X100092044Y-57985419D02*
X100139663Y-57937800D01*
X100139663Y-57937800D02*
X100092044Y-57890181D01*
X100092044Y-57890181D02*
X100044424Y-57937800D01*
X100044424Y-57937800D02*
X100139663Y-57937800D01*
X100139663Y-59699704D02*
X100139663Y-59128276D01*
X100139663Y-59413990D02*
X99139663Y-59413990D01*
X99139663Y-59413990D02*
X99282520Y-59318752D01*
X99282520Y-59318752D02*
X99377758Y-59223514D01*
X99377758Y-59223514D02*
X99425377Y-59128276D01*
X100044424Y-60128276D02*
X100092044Y-60175895D01*
X100092044Y-60175895D02*
X100139663Y-60128276D01*
X100139663Y-60128276D02*
X100092044Y-60080657D01*
X100092044Y-60080657D02*
X100044424Y-60128276D01*
X100044424Y-60128276D02*
X100139663Y-60128276D01*
X99139663Y-60794942D02*
X99139663Y-60890180D01*
X99139663Y-60890180D02*
X99187282Y-60985418D01*
X99187282Y-60985418D02*
X99234901Y-61033037D01*
X99234901Y-61033037D02*
X99330139Y-61080656D01*
X99330139Y-61080656D02*
X99520615Y-61128275D01*
X99520615Y-61128275D02*
X99758710Y-61128275D01*
X99758710Y-61128275D02*
X99949186Y-61080656D01*
X99949186Y-61080656D02*
X100044424Y-61033037D01*
X100044424Y-61033037D02*
X100092044Y-60985418D01*
X100092044Y-60985418D02*
X100139663Y-60890180D01*
X100139663Y-60890180D02*
X100139663Y-60794942D01*
X100139663Y-60794942D02*
X100092044Y-60699704D01*
X100092044Y-60699704D02*
X100044424Y-60652085D01*
X100044424Y-60652085D02*
X99949186Y-60604466D01*
X99949186Y-60604466D02*
X99758710Y-60556847D01*
X99758710Y-60556847D02*
X99520615Y-60556847D01*
X99520615Y-60556847D02*
X99330139Y-60604466D01*
X99330139Y-60604466D02*
X99234901Y-60652085D01*
X99234901Y-60652085D02*
X99187282Y-60699704D01*
X99187282Y-60699704D02*
X99139663Y-60794942D01*
%LPC*%
D11*
X149100000Y-54667500D03*
X149100000Y-63432500D03*
D12*
X126160000Y-54380000D03*
X120380000Y-54380000D03*
D13*
X127590000Y-54880000D03*
D14*
X127590000Y-50700000D03*
X118950000Y-50700000D03*
D13*
X118950000Y-54880000D03*
%LPD*%
M02*
